<svg width="1068" height="695" viewBox="0 0 1068 695" fill="none" xmlns="http://www.w3.org/2000/svg">
<mask id="path-1-outside-1_1_31" maskUnits="userSpaceOnUse" x="273.373" y="323.677" width="212.202" height="208.357" fill="black">
<rect fill="white" x="273.373" y="323.677" width="212.202" height="208.357"/>
<path d="M354.306 399.017C365.161 402.78 370.629 411.579 370.71 425.412L370.879 454.411C371.007 476.411 360.738 487.477 340.072 487.611L275.823 488.025L274.88 326.278L337.129 325.876C357.795 325.743 368.192 336.676 368.321 358.676L368.407 373.425C368.484 386.759 363.784 395.289 354.306 399.017ZM328.517 349.682L310.018 349.801L310.27 393.051L328.77 392.931C330.103 392.923 331.183 392.416 332.011 391.411C333.005 390.404 333.498 389.234 333.49 387.901L333.297 354.651C333.289 353.318 332.782 352.155 331.776 351.161C330.937 350.167 329.851 349.674 328.517 349.682ZM335.903 458.637L335.691 422.387C335.684 421.054 335.177 419.891 334.171 418.897C333.332 417.903 332.246 417.41 330.912 417.418L310.413 417.55L310.682 463.8L331.182 463.667C332.515 463.659 333.596 463.152 334.423 462.146C335.417 461.14 335.911 459.97 335.903 458.637ZM449.749 364.901L483.248 364.685L484.013 495.933C484.142 517.932 473.873 528.999 453.206 529.132L428.207 529.293C407.541 529.426 397.143 518.493 397.015 496.494L396.992 492.494L429.491 492.284L429.538 500.284C429.546 501.617 429.969 502.781 430.808 503.776C431.814 504.769 432.983 505.262 434.317 505.253L445.817 505.179C447.15 505.17 448.23 504.663 449.058 503.658C450.052 502.652 450.545 501.482 450.537 500.148L450.393 475.399C445.416 479.431 438.595 481.475 429.928 481.531L424.679 481.565C404.012 481.698 393.615 470.765 393.487 448.765L393 365.267L426.499 365.051L427.009 452.549C427.017 453.883 427.441 455.046 428.28 456.041C429.286 457.035 430.455 457.527 431.788 457.518L445.538 457.43C446.871 457.421 447.952 456.914 448.779 455.909C449.774 454.902 450.267 453.733 450.259 452.399L449.749 364.901Z"/>
</mask>
<path d="M354.306 399.017C365.161 402.78 370.629 411.579 370.71 425.412L370.879 454.411C371.007 476.411 360.738 487.477 340.072 487.611L275.823 488.025L274.88 326.278L337.129 325.876C357.795 325.743 368.192 336.676 368.321 358.676L368.407 373.425C368.484 386.759 363.784 395.289 354.306 399.017ZM328.517 349.682L310.018 349.801L310.27 393.051L328.77 392.931C330.103 392.923 331.183 392.416 332.011 391.411C333.005 390.404 333.498 389.234 333.49 387.901L333.297 354.651C333.289 353.318 332.782 352.155 331.776 351.161C330.937 350.167 329.851 349.674 328.517 349.682ZM335.903 458.637L335.691 422.387C335.684 421.054 335.177 419.891 334.171 418.897C333.332 417.903 332.246 417.41 330.912 417.418L310.413 417.55L310.682 463.8L331.182 463.667C332.515 463.659 333.596 463.152 334.423 462.146C335.417 461.14 335.911 459.97 335.903 458.637ZM449.749 364.901L483.248 364.685L484.013 495.933C484.142 517.932 473.873 528.999 453.206 529.132L428.207 529.293C407.541 529.426 397.143 518.493 397.015 496.494L396.992 492.494L429.491 492.284L429.538 500.284C429.546 501.617 429.969 502.781 430.808 503.776C431.814 504.769 432.983 505.262 434.317 505.253L445.817 505.179C447.15 505.17 448.23 504.663 449.058 503.658C450.052 502.652 450.545 501.482 450.537 500.148L450.393 475.399C445.416 479.431 438.595 481.475 429.928 481.531L424.679 481.565C404.012 481.698 393.615 470.765 393.487 448.765L393 365.267L426.499 365.051L427.009 452.549C427.017 453.883 427.441 455.046 428.28 456.041C429.286 457.035 430.455 457.527 431.788 457.518L445.538 457.43C446.871 457.421 447.952 456.914 448.779 455.909C449.774 454.902 450.267 453.733 450.259 452.399L449.749 364.901Z" fill="#001541"/>
<path d="M354.306 399.017L353.94 398.086L351.423 399.076L353.977 399.962L354.306 399.017ZM275.823 488.025L274.823 488.031L274.829 489.031L275.829 489.025L275.823 488.025ZM274.88 326.278L274.874 325.278L273.874 325.284L273.88 326.284L274.88 326.278ZM310.018 349.801L310.012 348.801L309.012 348.808L309.018 349.808L310.018 349.801ZM310.27 393.051L309.27 393.057L309.276 394.057L310.276 394.051L310.27 393.051ZM332.011 391.411L331.3 390.708L331.268 390.74L331.239 390.775L332.011 391.411ZM331.776 351.161L331.012 351.806L331.041 351.841L331.073 351.873L331.776 351.161ZM334.171 418.897L333.407 419.542L333.436 419.577L333.468 419.609L334.171 418.897ZM310.413 417.55L310.407 416.55L309.407 416.557L309.413 417.557L310.413 417.55ZM310.682 463.8L309.682 463.806L309.688 464.806L310.688 464.8L310.682 463.8ZM334.423 462.146L333.712 461.444L333.68 461.476L333.651 461.511L334.423 462.146ZM354.306 399.017L353.977 399.962C359.214 401.777 363.099 404.783 365.699 408.966C368.308 413.165 369.67 418.626 369.71 425.418L370.71 425.412L371.71 425.405C371.669 418.364 370.256 412.51 367.398 407.91C364.529 403.295 360.253 400.02 354.634 398.072L354.306 399.017ZM370.71 425.412L369.71 425.418L369.879 454.418L370.879 454.411L371.879 454.405L371.71 425.405L370.71 425.412ZM370.879 454.411L369.879 454.418C369.942 465.278 367.437 473.254 362.54 478.531C357.655 483.795 350.228 486.545 340.066 486.611L340.072 487.611L340.078 488.611C350.581 488.543 358.622 485.692 364.006 479.891C369.379 474.101 371.944 465.544 371.879 454.405L370.879 454.411ZM340.072 487.611L340.066 486.611L275.817 487.025L275.823 488.025L275.829 489.025L340.078 488.611L340.072 487.611ZM275.823 488.025L276.823 488.018L275.88 326.271L274.88 326.278L273.88 326.284L274.823 488.031L275.823 488.025ZM274.88 326.278L274.886 327.278L337.135 326.876L337.129 325.876L337.123 324.876L274.874 325.278L274.88 326.278ZM337.129 325.876L337.135 326.876C347.297 326.811 354.755 329.464 359.702 334.665C364.659 339.878 367.257 347.821 367.321 358.682L368.321 358.676L369.321 358.669C369.256 347.53 366.591 339.007 361.151 333.287C355.7 327.555 347.627 324.808 337.123 324.876L337.129 325.876ZM368.321 358.676L367.321 358.682L367.407 373.432L368.407 373.425L369.407 373.419L369.321 358.669L368.321 358.676ZM368.407 373.425L367.407 373.432C367.445 379.988 366.307 385.271 364.064 389.341C361.832 393.392 358.473 396.304 353.94 398.086L354.306 399.017L354.671 399.948C359.617 398.002 363.347 394.785 365.815 390.305C368.273 385.845 369.446 380.196 369.407 373.419L368.407 373.425ZM328.517 349.682L328.512 348.682L310.012 348.801L310.018 349.801L310.024 350.801L328.523 350.682L328.517 349.682ZM310.018 349.801L309.018 349.808L309.27 393.057L310.27 393.051L311.27 393.044L311.018 349.795L310.018 349.801ZM310.27 393.051L310.276 394.051L328.775 393.931L328.77 392.931L328.764 391.931L310.264 392.051L310.27 393.051ZM328.77 392.931L328.775 393.931C330.397 393.921 331.761 393.287 332.783 392.046L332.011 391.411L331.239 390.775C330.605 391.545 329.809 391.925 328.764 391.931L328.77 392.931ZM332.011 391.411L332.722 392.113C333.89 390.931 334.5 389.51 334.49 387.894L333.49 387.901L332.49 387.907C332.497 388.958 332.12 389.878 331.3 390.708L332.011 391.411ZM333.49 387.901L334.49 387.894L334.296 354.645L333.297 354.651L332.297 354.658L332.49 387.907L333.49 387.901ZM333.297 354.651L334.296 354.645C334.287 353.029 333.661 351.617 332.479 350.45L331.776 351.161L331.073 351.873C331.903 352.693 332.29 353.607 332.297 354.658L333.297 354.651ZM331.776 351.161L332.541 350.516C331.505 349.288 330.133 348.672 328.512 348.682L328.517 349.682L328.523 350.682C329.568 350.675 330.369 351.045 331.012 351.806L331.776 351.161ZM335.903 458.637L336.903 458.63L336.691 422.381L335.691 422.387L334.691 422.394L334.903 458.643L335.903 458.637ZM335.691 422.387L336.691 422.381C336.682 420.765 336.056 419.353 334.874 418.185L334.171 418.897L333.468 419.609C334.298 420.429 334.685 421.343 334.691 422.394L335.691 422.387ZM334.171 418.897L334.936 418.252C333.9 417.024 332.528 416.408 330.907 416.418L330.912 417.418L330.918 418.418C331.963 418.411 332.764 418.781 333.407 419.542L334.171 418.897ZM330.912 417.418L330.907 416.418L310.407 416.55L310.413 417.55L310.419 418.55L330.918 418.418L330.912 417.418ZM310.413 417.55L309.413 417.557L309.682 463.806L310.682 463.8L311.682 463.793L311.413 417.544L310.413 417.55ZM310.682 463.8L310.688 464.8L331.188 464.667L331.182 463.667L331.176 462.667L310.677 462.8L310.682 463.8ZM331.182 463.667L331.188 464.667C332.81 464.657 334.174 464.023 335.195 462.782L334.423 462.146L333.651 461.511C333.018 462.281 332.221 462.661 331.176 462.667L331.182 463.667ZM334.423 462.146L335.134 462.849C336.302 461.666 336.912 460.246 336.903 458.63L335.903 458.637L334.903 458.643C334.909 459.694 334.532 460.613 333.712 461.444L334.423 462.146ZM449.749 364.901L449.743 363.901L448.743 363.907L448.749 364.907L449.749 364.901ZM483.248 364.685L484.248 364.678L484.242 363.678L483.242 363.685L483.248 364.685ZM396.992 492.494L396.986 491.494L395.986 491.5L395.992 492.5L396.992 492.494ZM429.491 492.284L430.491 492.278L430.485 491.278L429.485 491.284L429.491 492.284ZM430.808 503.776L430.044 504.421L430.073 504.456L430.105 504.487L430.808 503.776ZM449.058 503.658L448.347 502.956L448.315 502.988L448.286 503.023L449.058 503.658ZM450.393 475.399L451.393 475.392L451.381 473.312L449.764 474.622L450.393 475.399ZM393 365.267L392.994 364.267L391.994 364.273L392 365.273L393 365.267ZM426.499 365.051L427.499 365.044L427.493 364.044L426.493 364.051L426.499 365.051ZM428.28 456.041L427.515 456.686L427.545 456.721L427.577 456.753L428.28 456.041ZM448.779 455.909L448.068 455.206L448.036 455.239L448.007 455.274L448.779 455.909ZM449.749 364.901L449.755 365.901L483.254 365.685L483.248 364.685L483.242 363.685L449.743 363.901L449.749 364.901ZM483.248 364.685L482.248 364.691L483.013 495.939L484.013 495.933L485.013 495.926L484.248 364.678L483.248 364.685ZM484.013 495.933L483.013 495.939C483.077 506.8 480.571 514.776 475.675 520.052C470.79 525.317 463.363 528.066 453.2 528.132L453.206 529.132L453.212 530.132C463.716 530.064 471.757 527.214 477.141 521.412C482.513 515.622 485.078 507.065 485.013 495.926L484.013 495.933ZM453.206 529.132L453.2 528.132L428.201 528.293L428.207 529.293L428.213 530.293L453.212 530.132L453.206 529.132ZM428.207 529.293L428.201 528.293C418.039 528.359 410.58 525.705 405.634 520.504C400.677 515.291 398.078 507.348 398.015 496.487L397.015 496.494L396.015 496.5C396.08 507.639 398.745 516.162 404.184 521.882C409.635 527.614 417.709 530.361 428.213 530.293L428.207 529.293ZM397.015 496.494L398.015 496.487L397.992 492.487L396.992 492.494L395.992 492.5L396.015 496.5L397.015 496.494ZM396.992 492.494L396.998 493.494L429.497 493.284L429.491 492.284L429.485 491.284L396.986 491.494L396.992 492.494ZM429.491 492.284L428.491 492.29L428.538 500.29L429.538 500.284L430.538 500.277L430.491 492.278L429.491 492.284ZM429.538 500.284L428.538 500.29C428.547 501.851 429.05 503.243 430.044 504.421L430.808 503.776L431.573 503.131C430.888 502.319 430.544 501.383 430.538 500.277L429.538 500.284ZM430.808 503.776L430.105 504.487C431.287 505.655 432.707 506.264 434.323 506.253L434.317 505.253L434.311 504.253C433.26 504.26 432.341 503.884 431.511 503.064L430.808 503.776ZM434.317 505.253L434.323 506.253L445.822 506.179L445.817 505.179L445.811 504.179L434.311 504.253L434.317 505.253ZM445.817 505.179L445.822 506.179C447.444 506.169 448.808 505.534 449.83 504.293L449.058 503.658L448.286 503.023C447.652 503.793 446.856 504.172 445.811 504.179L445.817 505.179ZM449.058 503.658L449.769 504.361C450.937 503.178 451.547 501.758 451.537 500.142L450.537 500.148L449.537 500.155C449.543 501.206 449.167 502.125 448.347 502.956L449.058 503.658ZM450.537 500.148L451.537 500.142L451.393 475.392L450.393 475.399L449.393 475.405L449.537 500.155L450.537 500.148ZM450.393 475.399L449.764 474.622C445.017 478.468 438.442 480.476 429.923 480.531L429.928 481.531L429.934 482.531C438.748 482.474 445.816 480.394 451.022 476.176L450.393 475.399ZM429.928 481.531L429.923 480.531L424.673 480.565L424.679 481.565L424.684 482.565L429.934 482.531L429.928 481.531ZM424.679 481.565L424.673 480.565C414.51 480.63 407.052 477.977 402.106 472.776C397.148 467.563 394.55 459.62 394.487 448.759L393.487 448.765L392.487 448.772C392.552 459.911 395.216 468.434 400.656 474.154C406.107 479.886 414.181 482.633 424.684 482.565L424.679 481.565ZM393.487 448.765L394.487 448.759L394 365.26L393 365.267L392 365.273L392.487 448.772L393.487 448.765ZM393 365.267L393.006 366.267L426.505 366.051L426.499 365.051L426.493 364.051L392.994 364.267L393 365.267ZM426.499 365.051L425.499 365.057L426.009 452.556L427.009 452.549L428.009 452.543L427.499 365.044L426.499 365.051ZM427.009 452.549L426.009 452.556C426.019 454.117 426.521 455.508 427.515 456.686L428.28 456.041L429.044 455.396C428.36 454.585 428.016 453.648 428.009 452.543L427.009 452.549ZM428.28 456.041L427.577 456.753C428.759 457.92 430.178 458.529 431.794 458.518L431.788 457.518L431.783 456.519C430.732 456.525 429.813 456.149 428.983 455.329L428.28 456.041ZM431.788 457.518L431.794 458.518L445.544 458.43L445.538 457.43L445.532 456.43L431.783 456.519L431.788 457.518ZM445.538 457.43L445.544 458.43C447.166 458.419 448.53 457.785 449.551 456.544L448.779 455.909L448.007 455.274C447.374 456.043 446.577 456.423 445.532 456.43L445.538 457.43ZM448.779 455.909L449.491 456.611C450.659 455.429 451.268 454.009 451.259 452.393L450.259 452.399L449.259 452.406C449.265 453.456 448.888 454.376 448.068 455.206L448.779 455.909ZM450.259 452.399L451.259 452.393L450.749 364.894L449.749 364.901L448.749 364.907L449.259 452.406L450.259 452.399Z" fill="black" mask="url(#path-1-outside-1_1_31)"/>
<mask id="path-3-outside-2_1_31" maskUnits="userSpaceOnUse" x="271.089" y="131.571" width="370.769" height="169.972" fill="black">
<rect fill="white" x="271.089" y="131.571" width="370.769" height="169.972"/>
<path d="M306.6 297.264L273.101 297.533L272.344 135.785L305.843 135.515L306.6 297.264ZM418.826 204.859L419.112 265.858C419.215 287.858 408.933 298.941 388.267 299.107L360.018 299.334C339.352 299.5 328.968 288.584 328.865 266.584L328.579 205.584C328.476 183.585 338.758 172.502 359.424 172.336L387.673 172.109C408.339 171.943 418.724 182.859 418.826 204.859ZM385.646 273.128L385.294 197.878C385.287 196.545 384.782 195.383 383.777 194.391C382.939 193.397 381.854 192.906 380.52 192.917L366.771 193.027C365.437 193.038 364.273 193.547 363.278 194.555C362.449 195.562 362.038 196.732 362.044 198.065L362.396 273.315C362.403 274.648 362.825 275.811 363.663 276.804C364.667 277.796 365.836 278.287 367.17 278.276L380.919 278.166C382.252 278.155 383.333 277.646 384.162 276.64C385.157 275.632 385.652 274.461 385.646 273.128ZM499.181 219.214C519.847 219.048 530.232 229.964 530.334 251.964L530.395 264.964C530.498 286.964 520.217 298.047 499.551 298.213L471.801 298.436C451.135 298.602 440.751 287.685 440.648 265.685L440.612 257.935L471.611 257.686L471.662 268.686C471.669 270.02 472.091 271.183 472.929 272.176C473.933 273.168 475.102 273.659 476.436 273.648L496.935 273.483C498.268 273.472 499.349 272.964 500.178 271.957C501.173 270.949 501.668 269.778 501.661 268.445L501.591 253.445C501.585 252.112 501.08 250.949 500.075 249.957C499.237 248.964 498.151 248.473 496.818 248.483L471.069 248.69C450.403 248.857 440.018 237.94 439.915 215.94L439.863 204.69C439.76 182.69 450.041 171.607 470.707 171.441L496.957 171.23C517.623 171.064 528.007 181.981 528.11 203.981L528.131 208.481L497.132 208.73L497.096 200.98C497.09 199.647 496.584 198.484 495.579 197.492C494.741 196.499 493.656 196.008 492.323 196.018L473.323 196.171C471.99 196.182 470.826 196.691 469.83 197.699C469.002 198.706 468.59 199.876 468.597 201.209L468.659 214.459C468.665 215.792 469.087 216.956 469.925 217.949C470.93 218.941 472.099 219.431 473.432 219.421L499.181 219.214ZM608.857 170.331C629.523 170.165 639.908 181.082 640.011 203.081L640.195 242.581L583.447 243.037L583.567 268.537C583.573 269.87 583.995 271.033 584.833 272.027C585.837 273.019 587.006 273.509 588.34 273.499L602.089 273.388C603.423 273.377 604.504 272.869 605.332 271.862C606.327 270.854 606.822 269.683 606.816 268.35L606.753 254.85L640.252 254.581L640.296 264.081C640.399 286.081 630.117 297.163 609.451 297.33L581.202 297.557C560.536 297.723 550.152 286.806 550.049 264.806L549.764 203.807C549.661 181.807 559.942 170.724 580.608 170.558L608.857 170.331ZM583.344 221.037L606.594 220.85L606.488 198.351C606.482 197.017 605.977 195.855 604.972 194.863C604.134 193.87 603.048 193.378 601.715 193.389L587.966 193.499C586.632 193.51 585.468 194.02 584.473 195.028C583.644 196.034 583.233 197.204 583.239 198.538L583.344 221.037Z"/>
</mask>
<path d="M306.6 297.264L273.101 297.533L272.344 135.785L305.843 135.515L306.6 297.264ZM418.826 204.859L419.112 265.858C419.215 287.858 408.933 298.941 388.267 299.107L360.018 299.334C339.352 299.5 328.968 288.584 328.865 266.584L328.579 205.584C328.476 183.585 338.758 172.502 359.424 172.336L387.673 172.109C408.339 171.943 418.724 182.859 418.826 204.859ZM385.646 273.128L385.294 197.878C385.287 196.545 384.782 195.383 383.777 194.391C382.939 193.397 381.854 192.906 380.52 192.917L366.771 193.027C365.437 193.038 364.273 193.547 363.278 194.555C362.449 195.562 362.038 196.732 362.044 198.065L362.396 273.315C362.403 274.648 362.825 275.811 363.663 276.804C364.667 277.796 365.836 278.287 367.17 278.276L380.919 278.166C382.252 278.155 383.333 277.646 384.162 276.64C385.157 275.632 385.652 274.461 385.646 273.128ZM499.181 219.214C519.847 219.048 530.232 229.964 530.334 251.964L530.395 264.964C530.498 286.964 520.217 298.047 499.551 298.213L471.801 298.436C451.135 298.602 440.751 287.685 440.648 265.685L440.612 257.935L471.611 257.686L471.662 268.686C471.669 270.02 472.091 271.183 472.929 272.176C473.933 273.168 475.102 273.659 476.436 273.648L496.935 273.483C498.268 273.472 499.349 272.964 500.178 271.957C501.173 270.949 501.668 269.778 501.661 268.445L501.591 253.445C501.585 252.112 501.08 250.949 500.075 249.957C499.237 248.964 498.151 248.473 496.818 248.483L471.069 248.69C450.403 248.857 440.018 237.94 439.915 215.94L439.863 204.69C439.76 182.69 450.041 171.607 470.707 171.441L496.957 171.23C517.623 171.064 528.007 181.981 528.11 203.981L528.131 208.481L497.132 208.73L497.096 200.98C497.09 199.647 496.584 198.484 495.579 197.492C494.741 196.499 493.656 196.008 492.323 196.018L473.323 196.171C471.99 196.182 470.826 196.691 469.83 197.699C469.002 198.706 468.59 199.876 468.597 201.209L468.659 214.459C468.665 215.792 469.087 216.956 469.925 217.949C470.93 218.941 472.099 219.431 473.432 219.421L499.181 219.214ZM608.857 170.331C629.523 170.165 639.908 181.082 640.011 203.081L640.195 242.581L583.447 243.037L583.567 268.537C583.573 269.87 583.995 271.033 584.833 272.027C585.837 273.019 587.006 273.509 588.34 273.499L602.089 273.388C603.423 273.377 604.504 272.869 605.332 271.862C606.327 270.854 606.822 269.683 606.816 268.35L606.753 254.85L640.252 254.581L640.296 264.081C640.399 286.081 630.117 297.163 609.451 297.33L581.202 297.557C560.536 297.723 550.152 286.806 550.049 264.806L549.764 203.807C549.661 181.807 559.942 170.724 580.608 170.558L608.857 170.331ZM583.344 221.037L606.594 220.85L606.488 198.351C606.482 197.017 605.977 195.855 604.972 194.863C604.134 193.87 603.048 193.378 601.715 193.389L587.966 193.499C586.632 193.51 585.468 194.02 584.473 195.028C583.644 196.034 583.233 197.204 583.239 198.538L583.344 221.037Z" fill="#001541"/>
<path d="M306.6 297.264L306.604 298.264L307.604 298.256L307.6 297.256L306.6 297.264ZM273.101 297.533L272.101 297.541L272.106 298.541L273.106 298.533L273.101 297.533ZM272.344 135.785L272.34 134.785L271.34 134.793L271.344 135.793L272.344 135.785ZM305.843 135.515L306.843 135.507L306.839 134.507L305.839 134.515L305.843 135.515ZM306.6 297.264L306.595 296.264L273.096 296.533L273.101 297.533L273.106 298.533L306.604 298.264L306.6 297.264ZM273.101 297.533L274.101 297.525L273.344 135.777L272.344 135.785L271.344 135.793L272.101 297.541L273.101 297.533ZM272.344 135.785L272.349 136.785L305.848 136.515L305.843 135.515L305.839 134.515L272.34 134.785L272.344 135.785ZM305.843 135.515L304.843 135.523L305.6 297.272L306.6 297.264L307.6 297.256L306.843 135.507L305.843 135.515ZM383.777 194.391L383.012 195.037L383.041 195.072L383.073 195.103L383.777 194.391ZM363.278 194.555L362.568 193.854L362.536 193.886L362.507 193.921L363.278 194.555ZM363.663 276.804L362.897 277.451L362.927 277.485L362.959 277.517L363.663 276.804ZM384.162 276.64L383.452 275.938L383.42 275.971L383.391 276.006L384.162 276.64ZM418.826 204.859L417.826 204.867L418.112 265.867L419.112 265.858L420.112 265.85L419.826 204.851L418.826 204.859ZM419.112 265.858L418.112 265.867C418.163 276.727 415.648 284.707 410.746 289.992C405.854 295.264 398.425 298.026 388.262 298.107L388.267 299.107L388.272 300.107C398.775 300.023 406.819 297.16 412.21 291.349C417.589 285.551 420.164 276.989 420.112 265.85L419.112 265.858ZM388.267 299.107L388.262 298.107L360.013 298.334L360.018 299.334L360.023 300.334L388.272 300.107L388.267 299.107ZM360.018 299.334L360.013 298.334C349.851 298.416 342.396 295.774 337.456 290.581C332.504 285.376 329.915 277.437 329.865 266.576L328.865 266.584L327.865 266.592C327.917 277.731 330.571 286.25 336.005 291.962C341.449 297.685 349.519 300.419 360.023 300.334L360.018 299.334ZM328.865 266.584L329.865 266.576L329.579 205.576L328.579 205.584L327.579 205.593L327.865 266.592L328.865 266.584ZM328.579 205.584L329.579 205.576C329.528 194.716 332.043 186.736 336.945 181.451C341.837 176.179 349.266 173.417 359.429 173.336L359.424 172.336L359.419 171.336C348.916 171.42 340.872 174.283 335.481 180.094C330.102 185.892 327.527 194.454 327.579 205.593L328.579 205.584ZM359.424 172.336L359.429 173.336L387.678 173.109L387.673 172.109L387.668 171.109L359.419 171.336L359.424 172.336ZM387.673 172.109L387.678 173.109C397.84 173.027 405.295 175.669 410.235 180.862C415.187 186.067 417.776 194.006 417.826 204.867L418.826 204.859L419.826 204.851C419.774 193.712 417.12 185.193 411.687 179.481C406.242 173.758 398.172 171.024 387.668 171.109L387.673 172.109ZM385.646 273.128L386.645 273.12L386.294 197.87L385.294 197.878L384.294 197.887L384.646 273.136L385.646 273.128ZM385.294 197.878L386.294 197.87C386.286 196.255 385.661 194.843 384.481 193.678L383.777 194.391L383.073 195.103C383.902 195.922 384.289 196.836 384.294 197.887L385.294 197.878ZM383.777 194.391L384.542 193.744C383.508 192.518 382.137 191.904 380.516 191.917L380.52 192.917L380.525 193.917C381.57 193.908 382.37 194.276 383.012 195.037L383.777 194.391ZM380.52 192.917L380.516 191.917L366.766 192.027L366.771 193.027L366.775 194.027L380.525 193.917L380.52 192.917ZM366.771 193.027L366.766 192.027C365.15 192.04 363.737 192.67 362.568 193.854L363.278 194.555L363.988 195.257C364.81 194.425 365.725 194.036 366.775 194.027L366.771 193.027ZM363.278 194.555L362.507 193.921C361.525 195.114 361.037 196.512 361.044 198.073L362.044 198.065L363.044 198.057C363.039 196.952 363.373 196.01 364.049 195.189L363.278 194.555ZM362.044 198.065L361.044 198.073L361.396 273.323L362.396 273.315L363.396 273.306L363.044 198.057L362.044 198.065ZM362.396 273.315L361.396 273.323C361.404 274.884 361.905 276.274 362.897 277.451L363.663 276.804L364.428 276.158C363.744 275.348 363.401 274.412 363.396 273.306L362.396 273.315ZM363.663 276.804L362.959 277.517C364.139 278.683 365.558 279.289 367.174 279.276L367.17 278.276L367.165 277.276C366.114 277.285 365.195 276.91 364.366 276.092L363.663 276.804ZM367.17 278.276L367.174 279.276L380.924 279.166L380.919 278.166L380.914 277.166L367.165 277.276L367.17 278.276ZM380.919 278.166L380.924 279.166C382.545 279.153 383.91 278.516 384.933 277.274L384.162 276.64L383.391 276.006C382.756 276.776 381.959 277.157 380.914 277.166L380.919 278.166ZM384.162 276.64L384.872 277.341C386.042 276.157 386.653 274.735 386.645 273.12L385.646 273.128L384.646 273.136C384.65 274.186 384.273 275.107 383.452 275.938L384.162 276.64ZM440.612 257.935L440.607 256.935L439.607 256.944L439.612 257.944L440.612 257.935ZM471.611 257.686L472.611 257.678L472.606 256.678L471.606 256.686L471.611 257.686ZM472.929 272.176L472.163 272.822L472.193 272.857L472.225 272.889L472.929 272.176ZM500.178 271.957L499.467 271.256L499.435 271.288L499.407 271.323L500.178 271.957ZM500.075 249.957L499.31 250.604L499.339 250.638L499.371 250.67L500.075 249.957ZM528.131 208.481L528.136 209.481L529.136 209.473L529.131 208.473L528.131 208.481ZM497.132 208.73L496.132 208.738L496.137 209.738L497.137 209.73L497.132 208.73ZM495.579 197.492L494.814 198.138L494.843 198.173L494.876 198.205L495.579 197.492ZM469.83 197.699L469.12 196.998L469.088 197.03L469.059 197.065L469.83 197.699ZM469.925 217.949L469.16 218.595L469.189 218.63L469.221 218.662L469.925 217.949ZM499.181 219.214L499.186 220.214C509.348 220.132 516.803 222.774 521.743 227.967C526.695 233.172 529.284 241.111 529.334 251.972L530.334 251.964L531.334 251.956C531.282 240.817 528.628 232.298 523.195 226.586C517.75 220.863 509.68 218.129 499.176 218.214L499.181 219.214ZM530.334 251.964L529.334 251.972L529.395 264.972L530.395 264.964L531.395 264.956L531.334 251.956L530.334 251.964ZM530.395 264.964L529.395 264.972C529.446 275.833 526.931 283.813 522.029 289.097C517.138 294.37 509.708 297.131 499.546 297.213L499.551 298.213L499.555 299.213C510.059 299.128 518.103 296.265 523.493 290.455C528.873 284.656 531.447 276.095 531.395 264.956L530.395 264.964ZM499.551 298.213L499.546 297.213L471.797 297.436L471.801 298.436L471.806 299.436L499.555 299.213L499.551 298.213ZM471.801 298.436L471.797 297.436C461.634 297.518 454.179 294.876 449.239 289.682C444.288 284.477 441.699 276.538 441.648 265.677L440.648 265.685L439.648 265.693C439.7 276.832 442.355 285.352 447.788 291.063C453.232 296.787 461.302 299.52 471.806 299.436L471.801 298.436ZM440.648 265.685L441.648 265.677L441.612 257.927L440.612 257.935L439.612 257.944L439.648 265.693L440.648 265.685ZM440.612 257.935L440.617 258.935L471.616 258.686L471.611 257.686L471.606 256.686L440.607 256.935L440.612 257.935ZM471.611 257.686L470.611 257.694L470.662 268.694L471.662 268.686L472.662 268.678L472.611 257.678L471.611 257.686ZM471.662 268.686L470.662 268.694C470.67 270.255 471.171 271.646 472.163 272.822L472.929 272.176L473.694 271.53C473.01 270.72 472.667 269.784 472.662 268.678L471.662 268.686ZM472.929 272.176L472.225 272.889C473.405 274.054 474.824 274.661 476.44 274.648L476.436 273.648L476.431 272.648C475.38 272.656 474.461 272.282 473.632 271.463L472.929 272.176ZM476.436 273.648L476.44 274.648L496.94 274.483L496.935 273.483L496.93 272.483L476.431 272.648L476.436 273.648ZM496.935 273.483L496.94 274.483C498.561 274.47 499.926 273.834 500.949 272.591L500.178 271.957L499.407 271.323C498.772 272.094 497.975 272.475 496.93 272.483L496.935 273.483ZM500.178 271.957L500.888 272.659C502.058 271.474 502.669 270.053 502.661 268.437L501.661 268.445L500.661 268.453C500.666 269.504 500.289 270.424 499.467 271.256L500.178 271.957ZM501.661 268.445L502.661 268.437L502.591 253.437L501.591 253.445L500.591 253.453L500.661 268.453L501.661 268.445ZM501.591 253.445L502.591 253.437C502.584 251.821 501.959 250.41 500.779 249.245L500.075 249.957L499.371 250.67C500.2 251.489 500.586 252.403 500.591 253.453L501.591 253.445ZM500.075 249.957L500.84 249.311C499.806 248.085 498.435 247.47 496.813 247.483L496.818 248.483L496.823 249.483C497.867 249.475 498.668 249.843 499.31 250.604L500.075 249.957ZM496.818 248.483L496.813 247.483L471.064 247.69L471.069 248.69L471.073 249.69L496.823 249.483L496.818 248.483ZM471.069 248.69L471.064 247.69C460.902 247.772 453.447 245.13 448.507 239.937C443.555 234.732 440.966 226.793 440.915 215.932L439.915 215.94L438.915 215.948C438.968 227.087 441.622 235.606 447.055 241.318C452.5 247.041 460.57 249.775 471.073 249.69L471.069 248.69ZM439.915 215.94L440.915 215.932L440.863 204.682L439.863 204.69L438.863 204.698L438.915 215.948L439.915 215.94ZM439.863 204.69L440.863 204.682C440.812 193.821 443.327 185.841 448.229 180.557C453.12 175.284 460.55 172.523 470.712 172.441L470.707 171.441L470.703 170.441C460.199 170.526 452.155 173.389 446.765 179.199C441.386 184.998 438.811 193.559 438.863 204.698L439.863 204.69ZM470.707 171.441L470.712 172.441L496.961 172.23L496.957 171.23L496.952 170.23L470.703 170.441L470.707 171.441ZM496.957 171.23L496.961 172.23C507.124 172.149 514.579 174.79 519.519 179.984C524.47 185.189 527.059 193.128 527.11 203.989L528.11 203.981L529.11 203.973C529.058 192.834 526.403 184.314 520.97 178.603C515.526 172.88 507.456 170.146 496.952 170.23L496.957 171.23ZM528.11 203.981L527.11 203.989L527.131 208.489L528.131 208.481L529.131 208.473L529.11 203.973L528.11 203.981ZM528.131 208.481L528.126 207.481L497.127 207.73L497.132 208.73L497.137 209.73L528.136 209.481L528.131 208.481ZM497.132 208.73L498.132 208.722L498.096 200.972L497.096 200.98L496.096 200.988L496.132 208.738L497.132 208.73ZM497.096 200.98L498.096 200.972C498.088 199.356 497.464 197.945 496.283 196.779L495.579 197.492L494.876 198.205C495.705 199.023 496.091 199.937 496.096 200.988L497.096 200.98ZM495.579 197.492L496.345 196.846C495.31 195.62 493.94 195.005 492.318 195.018L492.323 196.018L492.327 197.018C493.372 197.01 494.173 197.378 494.814 198.138L495.579 197.492ZM492.323 196.018L492.318 195.018L473.318 195.171L473.323 196.171L473.328 197.171L492.327 197.018L492.323 196.018ZM473.323 196.171L473.318 195.171C471.703 195.184 470.289 195.813 469.12 196.998L469.83 197.699L470.541 198.4C471.362 197.569 472.277 197.179 473.328 197.171L473.323 196.171ZM469.83 197.699L469.059 197.065C468.078 198.257 467.589 199.656 467.597 201.217L468.597 201.209L469.597 201.201C469.591 200.095 469.926 199.154 470.601 198.333L469.83 197.699ZM468.597 201.209L467.597 201.217L467.659 214.467L468.659 214.459L469.659 214.451L469.597 201.201L468.597 201.209ZM468.659 214.459L467.659 214.467C467.666 216.028 468.167 217.419 469.16 218.595L469.925 217.949L470.69 217.302C470.007 216.492 469.664 215.556 469.659 214.451L468.659 214.459ZM469.925 217.949L469.221 218.662C470.402 219.827 471.821 220.434 473.437 220.421L473.432 219.421L473.427 218.421C472.376 218.429 471.458 218.054 470.629 217.236L469.925 217.949ZM473.432 219.421L473.437 220.421L499.186 220.214L499.181 219.214L499.176 218.214L473.427 218.421L473.432 219.421ZM640.195 242.581L640.2 243.581L641.2 243.573L641.195 242.573L640.195 242.581ZM583.447 243.037L583.443 242.037L582.443 242.045L582.447 243.045L583.447 243.037ZM584.833 272.027L584.068 272.673L584.097 272.708L584.129 272.74L584.833 272.027ZM605.332 271.862L604.622 271.161L604.59 271.193L604.561 271.228L605.332 271.862ZM606.753 254.85L606.748 253.85L605.748 253.858L605.753 254.858L606.753 254.85ZM640.252 254.581L641.252 254.573L641.247 253.573L640.247 253.581L640.252 254.581ZM583.344 221.037L582.344 221.045L582.349 222.045L583.349 222.037L583.344 221.037ZM606.594 220.85L606.598 221.85L607.598 221.842L607.594 220.842L606.594 220.85ZM604.972 194.863L604.207 195.509L604.236 195.544L604.268 195.576L604.972 194.863ZM584.473 195.028L583.762 194.326L583.73 194.358L583.702 194.394L584.473 195.028ZM608.857 170.331L608.862 171.331C619.024 171.249 626.479 173.891 631.42 179.085C636.371 184.29 638.96 192.229 639.011 203.089L640.011 203.081L641.011 203.073C640.959 191.934 638.304 183.415 632.871 177.703C627.427 171.98 619.356 169.247 608.853 169.331L608.857 170.331ZM640.011 203.081L639.011 203.089L639.195 242.589L640.195 242.581L641.195 242.573L641.011 203.073L640.011 203.081ZM640.195 242.581L640.191 241.581L583.443 242.037L583.447 243.037L583.452 244.037L640.2 243.581L640.195 242.581ZM583.447 243.037L582.447 243.045L582.567 268.545L583.567 268.537L584.566 268.529L584.447 243.029L583.447 243.037ZM583.567 268.537L582.567 268.545C582.574 270.106 583.075 271.497 584.068 272.673L584.833 272.027L585.598 271.38C584.915 270.57 584.572 269.634 584.566 268.529L583.567 268.537ZM584.833 272.027L584.129 272.74C585.309 273.905 586.729 274.512 588.344 274.499L588.34 273.499L588.335 272.499C587.284 272.507 586.366 272.132 585.537 271.314L584.833 272.027ZM588.34 273.499L588.344 274.499L602.094 274.388L602.089 273.388L602.085 272.388L588.335 272.499L588.34 273.499ZM602.089 273.388L602.094 274.388C603.716 274.375 605.081 273.739 606.103 272.496L605.332 271.862L604.561 271.228C603.927 271.999 603.129 272.38 602.085 272.388L602.089 273.388ZM605.332 271.862L606.043 272.563C607.212 271.379 607.823 269.958 607.816 268.342L606.816 268.35L605.816 268.358C605.821 269.409 605.443 270.329 604.622 271.161L605.332 271.862ZM606.816 268.35L607.816 268.342L607.753 254.842L606.753 254.85L605.753 254.858L605.816 268.358L606.816 268.35ZM606.753 254.85L606.757 255.85L640.256 255.581L640.252 254.581L640.247 253.581L606.748 253.85L606.753 254.85ZM640.252 254.581L639.252 254.589L639.296 264.089L640.296 264.081L641.296 264.073L641.252 254.573L640.252 254.581ZM640.296 264.081L639.296 264.089C639.347 274.95 636.832 282.93 631.93 288.214C627.039 293.487 619.609 296.248 609.447 296.33L609.451 297.33L609.456 298.33C619.96 298.245 628.004 295.382 633.394 289.572C638.773 283.773 641.348 275.212 641.296 264.073L640.296 264.081ZM609.451 297.33L609.447 296.33L581.198 296.557L581.202 297.557L581.207 298.557L609.456 298.33L609.451 297.33ZM581.202 297.557L581.198 296.557C571.035 296.638 563.58 293.997 558.64 288.803C553.689 283.598 551.1 275.659 551.049 264.798L550.049 264.806L549.049 264.814C549.101 275.953 551.756 284.472 557.189 290.184C562.633 295.907 570.703 298.641 581.207 298.557L581.202 297.557ZM550.049 264.806L551.049 264.798L550.764 203.799L549.764 203.807L548.764 203.815L549.049 264.814L550.049 264.806ZM549.764 203.807L550.764 203.799C550.713 192.938 553.227 184.958 558.13 179.674C563.021 174.401 570.451 171.64 580.613 171.558L580.608 170.558L580.604 169.558C570.1 169.642 562.056 172.506 556.666 178.316C551.286 184.114 548.712 192.676 548.764 203.815L549.764 203.807ZM580.608 170.558L580.613 171.558L608.862 171.331L608.857 170.331L608.853 169.331L580.604 169.558L580.608 170.558ZM583.344 221.037L583.349 222.037L606.598 221.85L606.594 220.85L606.589 219.85L583.34 220.037L583.344 221.037ZM606.594 220.85L607.594 220.842L607.488 198.343L606.488 198.351L605.488 198.359L605.594 220.859L606.594 220.85ZM606.488 198.351L607.488 198.343C607.481 196.727 606.856 195.315 605.676 194.15L604.972 194.863L604.268 195.576C605.097 196.394 605.483 197.308 605.488 198.359L606.488 198.351ZM604.972 194.863L605.737 194.216C604.703 192.99 603.332 192.376 601.71 192.389L601.715 193.389L601.72 194.389C602.765 194.381 603.565 194.749 604.207 195.509L604.972 194.863ZM601.715 193.389L601.71 192.389L587.961 192.499L587.966 193.499L587.97 194.499L601.72 194.389L601.715 193.389ZM587.966 193.499L587.961 192.499C586.345 192.512 584.932 193.142 583.762 194.326L584.473 195.028L585.183 195.729C586.004 194.897 586.92 194.508 587.97 194.499L587.966 193.499ZM584.473 195.028L583.702 194.394C582.72 195.586 582.232 196.985 582.239 198.546L583.239 198.538L584.239 198.53C584.234 197.424 584.568 196.483 585.244 195.662L584.473 195.028ZM583.239 198.538L582.239 198.546L582.344 221.045L583.344 221.037L584.344 221.029L584.239 198.53L583.239 198.538Z" fill="black" mask="url(#path-3-outside-2_1_31)"/>
<mask id="path-5-outside-3_1_31" maskUnits="userSpaceOnUse" x="136" y="134" width="122.001" height="216.998" fill="black">
<rect fill="white" x="136" y="134" width="122.001" height="216.998"/>
<path d="M214.121 312.079L214.121 280.079L256.681 280.079L256.681 306.959C256.681 335.119 243.455 349.198 217.001 349.198L176.681 349.198C150.227 349.198 137 335.119 137 306.959L137 178C137 149.84 150.227 135.76 176.681 135.76L217.001 135.76C243.455 135.76 256.681 149.84 256.681 178L256.681 197.52L214.121 197.52L214.121 172.56C214.121 170.853 213.481 169.36 212.201 168.08C211.134 166.8 209.748 166.16 208.041 166.16L187.881 166.16C186.174 166.16 184.681 166.8 183.401 168.08C182.334 169.36 181.801 170.853 181.801 172.56L181.801 312.079C181.801 313.785 182.334 315.279 183.401 316.559C184.681 317.839 186.174 318.479 187.881 318.479L208.041 318.479C209.748 318.479 211.134 317.839 212.201 316.559C213.481 315.279 214.121 313.785 214.121 312.079Z"/>
</mask>
<path d="M214.121 312.079L214.121 280.079L256.681 280.079L256.681 306.959C256.681 335.119 243.455 349.198 217.001 349.198L176.681 349.198C150.227 349.198 137 335.119 137 306.959L137 178C137 149.84 150.227 135.76 176.681 135.76L217.001 135.76C243.455 135.76 256.681 149.84 256.681 178L256.681 197.52L214.121 197.52L214.121 172.56C214.121 170.853 213.481 169.36 212.201 168.08C211.134 166.8 209.748 166.16 208.041 166.16L187.881 166.16C186.174 166.16 184.681 166.8 183.401 168.08C182.334 169.36 181.801 170.853 181.801 172.56L181.801 312.079C181.801 313.785 182.334 315.279 183.401 316.559C184.681 317.839 186.174 318.479 187.881 318.479L208.041 318.479C209.748 318.479 211.134 317.839 212.201 316.559C213.481 315.279 214.121 313.785 214.121 312.079Z" fill="#001541"/>
<path d="M214.121 280.079L214.121 279.079L213.121 279.079L213.121 280.079L214.121 280.079ZM256.681 280.079L257.681 280.079L257.681 279.079L256.681 279.079L256.681 280.079ZM256.681 197.52L256.681 198.52L257.681 198.52L257.681 197.52L256.681 197.52ZM214.121 197.52L213.121 197.52L213.121 198.52L214.121 198.52L214.121 197.52ZM212.201 168.08L211.433 168.72L211.462 168.755L211.494 168.787L212.201 168.08ZM183.401 168.08L182.693 167.373L182.661 167.405L182.632 167.44L183.401 168.08ZM183.401 316.559L182.632 317.199L182.661 317.234L182.693 317.266L183.401 316.559ZM212.201 316.559L211.494 315.852L211.462 315.884L211.433 315.918L212.201 316.559ZM214.121 312.079L215.121 312.079L215.121 280.079L214.121 280.079L213.121 280.079L213.121 312.079L214.121 312.079ZM214.121 280.079L214.121 281.079L256.681 281.079L256.681 280.079L256.681 279.079L214.121 279.079L214.121 280.079ZM256.681 280.079L255.681 280.079L255.681 306.959L256.681 306.959L257.681 306.959L257.681 280.079L256.681 280.079ZM256.681 306.959L255.681 306.959C255.681 320.9 252.406 331.169 246.032 337.954C239.67 344.727 230.057 348.198 217.001 348.198L217.001 349.198L217.001 350.198C230.398 350.198 240.626 346.63 247.49 339.323C254.343 332.028 257.681 321.178 257.681 306.959L256.681 306.959ZM217.001 349.198L217.001 348.198L176.681 348.198L176.681 349.198L176.681 350.198L217.001 350.198L217.001 349.198ZM176.681 349.198L176.681 348.198C163.624 348.198 154.012 344.727 147.649 337.954C141.275 331.169 138 320.9 138 306.959L137 306.959L136 306.959C136 321.178 139.338 332.028 146.191 339.323C153.056 346.63 163.283 350.198 176.681 350.198L176.681 349.198ZM137 306.959L138 306.959L138 178L137 178L136 178L136 306.959L137 306.959ZM137 178L138 178C138 164.059 141.275 153.79 147.649 147.005C154.012 140.232 163.624 136.76 176.681 136.76L176.681 135.76L176.681 134.76C163.283 134.76 153.056 138.329 146.191 145.635C139.338 152.93 136 163.781 136 178L137 178ZM176.681 135.76L176.681 136.76L217.001 136.76L217.001 135.76L217.001 134.76L176.681 134.76L176.681 135.76ZM217.001 135.76L217.001 136.76C230.057 136.76 239.67 140.232 246.032 147.005C252.406 153.79 255.681 164.059 255.681 178L256.681 178L257.681 178C257.681 163.781 254.343 152.93 247.49 145.635C240.626 138.329 230.398 134.76 217.001 134.76L217.001 135.76ZM256.681 178L255.681 178L255.681 197.52L256.681 197.52L257.681 197.52L257.681 178L256.681 178ZM256.681 197.52L256.681 196.52L214.121 196.52L214.121 197.52L214.121 198.52L256.681 198.52L256.681 197.52ZM214.121 197.52L215.121 197.52L215.121 172.56L214.121 172.56L213.121 172.56L213.121 197.52L214.121 197.52ZM214.121 172.56L215.121 172.56C215.121 170.571 214.363 168.828 212.908 167.373L212.201 168.08L211.494 168.787C212.599 169.892 213.121 171.136 213.121 172.56L214.121 172.56ZM212.201 168.08L212.969 167.44C211.707 165.925 210.036 165.16 208.041 165.16L208.041 166.16L208.041 167.16C209.459 167.16 210.561 167.674 211.433 168.72L212.201 168.08ZM208.041 166.16L208.041 165.16L187.881 165.16L187.881 166.16L187.881 167.16L208.041 167.16L208.041 166.16ZM187.881 166.16L187.881 165.16C185.891 165.16 184.148 165.918 182.693 167.373L183.401 168.08L184.108 168.787C185.213 167.682 186.457 167.16 187.881 167.16L187.881 166.16ZM183.401 168.08L182.632 167.44C181.412 168.904 180.801 170.625 180.801 172.56L181.801 172.56L182.801 172.56C182.801 171.081 183.256 169.816 184.169 168.72L183.401 168.08ZM181.801 172.56L180.801 172.56L180.801 312.079L181.801 312.079L182.801 312.079L182.801 172.56L181.801 172.56ZM181.801 312.079L180.801 312.079C180.801 314.013 181.412 315.734 182.632 317.199L183.401 316.559L184.169 315.918C183.256 314.823 182.801 313.558 182.801 312.079L181.801 312.079ZM183.401 316.559L182.693 317.266C184.148 318.721 185.891 319.479 187.881 319.479L187.881 318.479L187.881 317.479C186.457 317.479 185.213 316.957 184.108 315.852L183.401 316.559ZM187.881 318.479L187.881 319.479L208.041 319.479L208.041 318.479L208.041 317.479L187.881 317.479L187.881 318.479ZM208.041 318.479L208.041 319.479C210.036 319.479 211.707 318.713 212.969 317.199L212.201 316.559L211.433 315.918C210.561 316.964 209.459 317.479 208.041 317.479L208.041 318.479ZM212.201 316.559L212.908 317.266C214.363 315.811 215.121 314.068 215.121 312.079L214.121 312.079L213.121 312.079C213.121 313.503 212.599 314.746 211.494 315.852L212.201 316.559Z" fill="black" mask="url(#path-5-outside-3_1_31)"/>
<mask id="path-7-outside-4_1_31" maskUnits="userSpaceOnUse" x="286.373" y="306.677" width="212.202" height="208.357" fill="black">
<rect fill="white" x="286.373" y="306.677" width="212.202" height="208.357"/>
<path d="M367.306 382.017C378.161 385.78 383.629 394.579 383.71 408.412L383.879 437.411C384.007 459.411 373.738 470.477 353.072 470.611L288.823 471.025L287.88 309.278L350.129 308.876C370.795 308.743 381.192 319.676 381.321 341.676L381.407 356.425C381.484 369.759 376.784 378.289 367.306 382.017ZM341.517 332.682L323.018 332.801L323.27 376.051L341.77 375.931C343.103 375.923 344.183 375.416 345.011 374.411C346.005 373.404 346.498 372.234 346.49 370.901L346.297 337.651C346.289 336.318 345.782 335.155 344.776 334.161C343.937 333.167 342.851 332.674 341.517 332.682ZM348.903 441.637L348.691 405.387C348.684 404.054 348.177 402.891 347.171 401.897C346.332 400.903 345.246 400.41 343.912 400.418L323.413 400.55L323.682 446.8L344.182 446.667C345.515 446.659 346.596 446.152 347.423 445.146C348.417 444.14 348.911 442.97 348.903 441.637ZM462.749 347.901L496.248 347.685L497.013 478.933C497.142 500.932 486.873 511.999 466.206 512.132L441.207 512.293C420.541 512.426 410.143 501.493 410.015 479.494L409.992 475.494L442.491 475.284L442.538 483.284C442.546 484.617 442.969 485.781 443.808 486.776C444.814 487.769 445.983 488.262 447.317 488.253L458.817 488.179C460.15 488.17 461.23 487.663 462.058 486.658C463.052 485.652 463.545 484.482 463.537 483.148L463.393 458.399C458.416 462.431 451.595 464.475 442.928 464.531L437.679 464.565C417.012 464.698 406.615 453.765 406.487 431.765L406 348.267L439.499 348.051L440.009 435.549C440.017 436.883 440.441 438.046 441.28 439.041C442.286 440.035 443.455 440.527 444.788 440.518L458.538 440.43C459.871 440.421 460.952 439.914 461.779 438.909C462.774 437.902 463.267 436.733 463.259 435.399L462.749 347.901Z"/>
</mask>
<path d="M367.306 382.017C378.161 385.78 383.629 394.579 383.71 408.412L383.879 437.411C384.007 459.411 373.738 470.477 353.072 470.611L288.823 471.025L287.88 309.278L350.129 308.876C370.795 308.743 381.192 319.676 381.321 341.676L381.407 356.425C381.484 369.759 376.784 378.289 367.306 382.017ZM341.517 332.682L323.018 332.801L323.27 376.051L341.77 375.931C343.103 375.923 344.183 375.416 345.011 374.411C346.005 373.404 346.498 372.234 346.49 370.901L346.297 337.651C346.289 336.318 345.782 335.155 344.776 334.161C343.937 333.167 342.851 332.674 341.517 332.682ZM348.903 441.637L348.691 405.387C348.684 404.054 348.177 402.891 347.171 401.897C346.332 400.903 345.246 400.41 343.912 400.418L323.413 400.55L323.682 446.8L344.182 446.667C345.515 446.659 346.596 446.152 347.423 445.146C348.417 444.14 348.911 442.97 348.903 441.637ZM462.749 347.901L496.248 347.685L497.013 478.933C497.142 500.932 486.873 511.999 466.206 512.132L441.207 512.293C420.541 512.426 410.143 501.493 410.015 479.494L409.992 475.494L442.491 475.284L442.538 483.284C442.546 484.617 442.969 485.781 443.808 486.776C444.814 487.769 445.983 488.262 447.317 488.253L458.817 488.179C460.15 488.17 461.23 487.663 462.058 486.658C463.052 485.652 463.545 484.482 463.537 483.148L463.393 458.399C458.416 462.431 451.595 464.475 442.928 464.531L437.679 464.565C417.012 464.698 406.615 453.765 406.487 431.765L406 348.267L439.499 348.051L440.009 435.549C440.017 436.883 440.441 438.046 441.28 439.041C442.286 440.035 443.455 440.527 444.788 440.518L458.538 440.43C459.871 440.421 460.952 439.914 461.779 438.909C462.774 437.902 463.267 436.733 463.259 435.399L462.749 347.901Z" fill="white"/>
<path d="M367.306 382.017L366.94 381.086L364.423 382.076L366.977 382.962L367.306 382.017ZM288.823 471.025L287.823 471.031L287.829 472.031L288.829 472.025L288.823 471.025ZM287.88 309.278L287.874 308.278L286.874 308.284L286.88 309.284L287.88 309.278ZM323.018 332.801L323.012 331.801L322.012 331.808L322.018 332.808L323.018 332.801ZM323.27 376.051L322.27 376.057L322.276 377.057L323.276 377.051L323.27 376.051ZM345.011 374.411L344.3 373.708L344.268 373.74L344.239 373.775L345.011 374.411ZM344.776 334.161L344.012 334.806L344.041 334.841L344.073 334.873L344.776 334.161ZM347.171 401.897L346.407 402.542L346.436 402.577L346.468 402.609L347.171 401.897ZM323.413 400.55L323.407 399.55L322.407 399.557L322.413 400.557L323.413 400.55ZM323.682 446.8L322.682 446.806L322.688 447.806L323.688 447.8L323.682 446.8ZM347.423 445.146L346.712 444.444L346.68 444.476L346.651 444.511L347.423 445.146ZM367.306 382.017L366.977 382.962C372.214 384.777 376.099 387.783 378.699 391.966C381.308 396.165 382.67 401.626 382.71 408.418L383.71 408.412L384.71 408.405C384.669 401.364 383.256 395.51 380.398 390.91C377.529 386.295 373.253 383.02 367.634 381.072L367.306 382.017ZM383.71 408.412L382.71 408.418L382.879 437.418L383.879 437.411L384.879 437.405L384.71 408.405L383.71 408.412ZM383.879 437.411L382.879 437.418C382.942 448.278 380.437 456.254 375.54 461.531C370.655 466.795 363.228 469.545 353.066 469.611L353.072 470.611L353.078 471.611C363.581 471.543 371.622 468.692 377.006 462.891C382.379 457.101 384.944 448.544 384.879 437.405L383.879 437.411ZM353.072 470.611L353.066 469.611L288.817 470.025L288.823 471.025L288.829 472.025L353.078 471.611L353.072 470.611ZM288.823 471.025L289.823 471.018L288.88 309.271L287.88 309.278L286.88 309.284L287.823 471.031L288.823 471.025ZM287.88 309.278L287.886 310.278L350.135 309.876L350.129 308.876L350.123 307.876L287.874 308.278L287.88 309.278ZM350.129 308.876L350.135 309.876C360.297 309.811 367.755 312.464 372.702 317.665C377.659 322.878 380.257 330.821 380.321 341.682L381.321 341.676L382.321 341.669C382.256 330.53 379.591 322.007 374.151 316.287C368.7 310.555 360.627 307.808 350.123 307.876L350.129 308.876ZM381.321 341.676L380.321 341.682L380.407 356.432L381.407 356.425L382.407 356.419L382.321 341.669L381.321 341.676ZM381.407 356.425L380.407 356.432C380.445 362.988 379.307 368.271 377.064 372.341C374.832 376.392 371.473 379.304 366.94 381.086L367.306 382.017L367.671 382.948C372.617 381.002 376.347 377.785 378.815 373.305C381.273 368.845 382.446 363.196 382.407 356.419L381.407 356.425ZM341.517 332.682L341.512 331.682L323.012 331.801L323.018 332.801L323.024 333.801L341.523 333.682L341.517 332.682ZM323.018 332.801L322.018 332.808L322.27 376.057L323.27 376.051L324.27 376.044L324.018 332.795L323.018 332.801ZM323.27 376.051L323.276 377.051L341.775 376.931L341.77 375.931L341.764 374.931L323.264 375.051L323.27 376.051ZM341.77 375.931L341.775 376.931C343.397 376.921 344.761 376.287 345.783 375.046L345.011 374.411L344.239 373.775C343.605 374.545 342.809 374.925 341.764 374.931L341.77 375.931ZM345.011 374.411L345.722 375.113C346.89 373.931 347.5 372.51 347.49 370.894L346.49 370.901L345.49 370.907C345.497 371.958 345.12 372.878 344.3 373.708L345.011 374.411ZM346.49 370.901L347.49 370.894L347.296 337.645L346.297 337.651L345.297 337.658L345.49 370.907L346.49 370.901ZM346.297 337.651L347.296 337.645C347.287 336.029 346.661 334.617 345.479 333.45L344.776 334.161L344.073 334.873C344.903 335.693 345.29 336.607 345.297 337.658L346.297 337.651ZM344.776 334.161L345.541 333.516C344.505 332.288 343.133 331.672 341.512 331.682L341.517 332.682L341.523 333.682C342.568 333.675 343.369 334.045 344.012 334.806L344.776 334.161ZM348.903 441.637L349.903 441.63L349.691 405.381L348.691 405.387L347.691 405.394L347.903 441.643L348.903 441.637ZM348.691 405.387L349.691 405.381C349.682 403.765 349.056 402.353 347.874 401.185L347.171 401.897L346.468 402.609C347.298 403.429 347.685 404.343 347.691 405.394L348.691 405.387ZM347.171 401.897L347.936 401.252C346.9 400.024 345.528 399.408 343.907 399.418L343.912 400.418L343.918 401.418C344.963 401.411 345.764 401.781 346.407 402.542L347.171 401.897ZM343.912 400.418L343.907 399.418L323.407 399.55L323.413 400.55L323.419 401.55L343.918 401.418L343.912 400.418ZM323.413 400.55L322.413 400.557L322.682 446.806L323.682 446.8L324.682 446.793L324.413 400.544L323.413 400.55ZM323.682 446.8L323.688 447.8L344.188 447.667L344.182 446.667L344.176 445.667L323.677 445.8L323.682 446.8ZM344.182 446.667L344.188 447.667C345.81 447.657 347.174 447.023 348.195 445.782L347.423 445.146L346.651 444.511C346.018 445.281 345.221 445.661 344.176 445.667L344.182 446.667ZM347.423 445.146L348.134 445.849C349.302 444.666 349.912 443.246 349.903 441.63L348.903 441.637L347.903 441.643C347.909 442.694 347.532 443.613 346.712 444.444L347.423 445.146ZM462.749 347.901L462.743 346.901L461.743 346.907L461.749 347.907L462.749 347.901ZM496.248 347.685L497.248 347.678L497.242 346.678L496.242 346.685L496.248 347.685ZM409.992 475.494L409.986 474.494L408.986 474.5L408.992 475.5L409.992 475.494ZM442.491 475.284L443.491 475.278L443.485 474.278L442.485 474.284L442.491 475.284ZM443.808 486.776L443.044 487.421L443.073 487.456L443.105 487.487L443.808 486.776ZM462.058 486.658L461.347 485.956L461.315 485.988L461.286 486.023L462.058 486.658ZM463.393 458.399L464.393 458.392L464.381 456.312L462.764 457.622L463.393 458.399ZM406 348.267L405.994 347.267L404.994 347.273L405 348.273L406 348.267ZM439.499 348.051L440.499 348.044L440.493 347.044L439.493 347.051L439.499 348.051ZM441.28 439.041L440.515 439.686L440.545 439.721L440.577 439.753L441.28 439.041ZM461.779 438.909L461.068 438.206L461.036 438.239L461.007 438.274L461.779 438.909ZM462.749 347.901L462.755 348.901L496.254 348.685L496.248 347.685L496.242 346.685L462.743 346.901L462.749 347.901ZM496.248 347.685L495.248 347.691L496.013 478.939L497.013 478.933L498.013 478.926L497.248 347.678L496.248 347.685ZM497.013 478.933L496.013 478.939C496.077 489.8 493.571 497.776 488.675 503.052C483.79 508.317 476.363 511.066 466.2 511.132L466.206 512.132L466.212 513.132C476.716 513.064 484.757 510.214 490.141 504.412C495.513 498.622 498.078 490.065 498.013 478.926L497.013 478.933ZM466.206 512.132L466.2 511.132L441.201 511.293L441.207 512.293L441.213 513.293L466.212 513.132L466.206 512.132ZM441.207 512.293L441.201 511.293C431.039 511.359 423.58 508.705 418.634 503.504C413.677 498.291 411.078 490.348 411.015 479.487L410.015 479.494L409.015 479.5C409.08 490.639 411.745 499.162 417.184 504.882C422.635 510.614 430.709 513.361 441.213 513.293L441.207 512.293ZM410.015 479.494L411.015 479.487L410.992 475.487L409.992 475.494L408.992 475.5L409.015 479.5L410.015 479.494ZM409.992 475.494L409.998 476.494L442.497 476.284L442.491 475.284L442.485 474.284L409.986 474.494L409.992 475.494ZM442.491 475.284L441.491 475.29L441.538 483.29L442.538 483.284L443.538 483.277L443.491 475.278L442.491 475.284ZM442.538 483.284L441.538 483.29C441.547 484.851 442.05 486.243 443.044 487.421L443.808 486.776L444.573 486.131C443.888 485.319 443.544 484.383 443.538 483.277L442.538 483.284ZM443.808 486.776L443.105 487.487C444.287 488.655 445.707 489.264 447.323 489.253L447.317 488.253L447.311 487.253C446.26 487.26 445.341 486.884 444.511 486.064L443.808 486.776ZM447.317 488.253L447.323 489.253L458.822 489.179L458.817 488.179L458.811 487.179L447.311 487.253L447.317 488.253ZM458.817 488.179L458.822 489.179C460.444 489.169 461.808 488.534 462.83 487.293L462.058 486.658L461.286 486.023C460.652 486.793 459.856 487.172 458.811 487.179L458.817 488.179ZM462.058 486.658L462.769 487.361C463.937 486.178 464.547 484.758 464.537 483.142L463.537 483.148L462.537 483.155C462.543 484.206 462.167 485.125 461.347 485.956L462.058 486.658ZM463.537 483.148L464.537 483.142L464.393 458.392L463.393 458.399L462.393 458.405L462.537 483.155L463.537 483.148ZM463.393 458.399L462.764 457.622C458.017 461.468 451.442 463.476 442.923 463.531L442.928 464.531L442.934 465.531C451.748 465.474 458.816 463.394 464.022 459.176L463.393 458.399ZM442.928 464.531L442.923 463.531L437.673 463.565L437.679 464.565L437.684 465.565L442.934 465.531L442.928 464.531ZM437.679 464.565L437.673 463.565C427.51 463.63 420.052 460.977 415.106 455.776C410.148 450.563 407.55 442.62 407.487 431.759L406.487 431.765L405.487 431.772C405.552 442.911 408.216 451.434 413.656 457.154C419.107 462.886 427.181 465.633 437.684 465.565L437.679 464.565ZM406.487 431.765L407.487 431.759L407 348.26L406 348.267L405 348.273L405.487 431.772L406.487 431.765ZM406 348.267L406.006 349.267L439.505 349.051L439.499 348.051L439.493 347.051L405.994 347.267L406 348.267ZM439.499 348.051L438.499 348.057L439.009 435.556L440.009 435.549L441.009 435.543L440.499 348.044L439.499 348.051ZM440.009 435.549L439.009 435.556C439.019 437.117 439.521 438.508 440.515 439.686L441.28 439.041L442.044 438.396C441.36 437.585 441.016 436.648 441.009 435.543L440.009 435.549ZM441.28 439.041L440.577 439.753C441.759 440.92 443.178 441.529 444.794 441.518L444.788 440.518L444.783 439.519C443.732 439.525 442.813 439.149 441.983 438.329L441.28 439.041ZM444.788 440.518L444.794 441.518L458.544 441.43L458.538 440.43L458.532 439.43L444.783 439.519L444.788 440.518ZM458.538 440.43L458.544 441.43C460.166 441.419 461.53 440.785 462.551 439.544L461.779 438.909L461.007 438.274C460.374 439.043 459.577 439.423 458.532 439.43L458.538 440.43ZM461.779 438.909L462.491 439.611C463.659 438.429 464.268 437.009 464.259 435.393L463.259 435.399L462.259 435.406C462.265 436.456 461.888 437.376 461.068 438.206L461.779 438.909ZM463.259 435.399L464.259 435.393L463.749 347.894L462.749 347.901L461.749 347.907L462.259 435.406L463.259 435.399Z" fill="black" mask="url(#path-7-outside-4_1_31)"/>
<rect x="0.502575" y="0.496362" width="437.887" height="419.425" transform="matrix(0.999974 -0.00726255 0.00517591 0.999987 496.165 220.584)" stroke="black"/>
<path d="M844.245 340.679L807.672 340.945L807.854 375.98L844.427 375.714L844.245 340.679Z" fill="#001541"/>
<path d="M844.608 410.749L808.035 411.015L808.216 446.05L844.789 445.784L844.608 410.749Z" fill="#001541"/>
<path d="M844.971 480.819L808.398 481.085L808.579 516.12L845.152 515.854L844.971 480.819Z" fill="#001541"/>
<path d="M515.451 413.14L516.358 588.315L626.077 587.518L625.624 499.931L662.197 499.665L662.65 587.252L772.369 586.455L771.462 411.281L643.003 324.623L515.451 413.14ZM735.615 551.686L699.042 551.952L698.588 464.364L588.869 465.161L589.323 552.749L552.75 553.014L552.115 430.392L643.23 368.417L734.98 429.064L735.615 551.686Z" fill="#001541"/>
<path d="M679.304 271.805L679.483 306.314L716.186 331.099L716.059 306.574L880.637 305.379L881.906 550.624L808.761 551.155L808.942 586.19L918.661 585.393L917.029 270.078L679.304 271.805Z" fill="#001541"/>
<rect x="0.502575" y="0.496362" width="437.887" height="419.425" transform="matrix(0.999974 -0.00726255 0.00517591 0.999987 505.122 200.191)" stroke="black"/>
<path d="M853.202 320.286L816.629 320.552L816.811 355.587L853.384 355.321L853.202 320.286Z" fill="white"/>
<path d="M853.565 390.356L816.992 390.622L817.173 425.657L853.746 425.391L853.565 390.356Z" fill="white"/>
<path d="M853.928 460.426L817.355 460.692L817.536 495.727L854.109 495.461L853.928 460.426Z" fill="white"/>
<path d="M524.408 392.747L525.315 567.922L635.034 567.125L634.58 479.537L671.153 479.272L671.607 566.859L781.326 566.062L780.419 390.888L651.96 304.23L524.408 392.747ZM744.571 531.293L707.998 531.559L707.545 443.971L597.826 444.768L598.279 532.356L561.706 532.621L561.072 409.999L652.187 348.024L743.937 408.671L744.571 531.293Z" fill="white"/>
<path d="M688.261 251.412L688.44 285.921L725.142 310.706L725.015 286.181L889.594 284.986L890.863 530.231L817.717 530.762L817.899 565.797L927.618 565L925.985 249.685L688.261 251.412Z" fill="white"/>
<mask id="path-13-outside-5_1_31" maskUnits="userSpaceOnUse" x="285.089" y="113.571" width="370.769" height="169.972" fill="black">
<rect fill="white" x="285.089" y="113.571" width="370.769" height="169.972"/>
<path d="M320.6 279.264L287.101 279.533L286.344 117.785L319.843 117.515L320.6 279.264ZM432.826 186.859L433.112 247.858C433.215 269.858 422.933 280.941 402.267 281.107L374.018 281.334C353.352 281.5 342.968 270.584 342.865 248.584L342.579 187.584C342.476 165.585 352.758 154.502 373.424 154.336L401.673 154.109C422.339 153.943 432.724 164.859 432.826 186.859ZM399.646 255.128L399.294 179.878C399.287 178.545 398.782 177.383 397.777 176.391C396.939 175.397 395.854 174.906 394.52 174.917L380.771 175.027C379.437 175.038 378.273 175.547 377.278 176.555C376.449 177.562 376.038 178.732 376.044 180.065L376.396 255.315C376.403 256.648 376.825 257.811 377.663 258.804C378.667 259.796 379.836 260.287 381.17 260.276L394.919 260.166C396.252 260.155 397.333 259.646 398.162 258.64C399.157 257.632 399.652 256.461 399.646 255.128ZM513.181 201.214C533.847 201.048 544.232 211.964 544.334 233.964L544.395 246.964C544.498 268.964 534.217 280.047 513.551 280.213L485.801 280.436C465.135 280.602 454.751 269.685 454.648 247.685L454.612 239.935L485.611 239.686L485.662 250.686C485.669 252.02 486.091 253.183 486.929 254.176C487.933 255.168 489.102 255.659 490.436 255.648L510.935 255.483C512.268 255.472 513.349 254.964 514.178 253.957C515.173 252.949 515.668 251.778 515.661 250.445L515.591 235.445C515.585 234.112 515.08 232.949 514.075 231.957C513.237 230.964 512.151 230.473 510.818 230.483L485.069 230.69C464.403 230.857 454.018 219.94 453.915 197.94L453.863 186.69C453.76 164.69 464.041 153.607 484.707 153.441L510.957 153.23C531.623 153.064 542.007 163.981 542.11 185.981L542.131 190.481L511.132 190.73L511.096 182.98C511.09 181.647 510.584 180.484 509.579 179.492C508.741 178.499 507.656 178.008 506.323 178.018L487.323 178.171C485.99 178.182 484.826 178.691 483.83 179.699C483.002 180.706 482.59 181.876 482.597 183.209L482.659 196.459C482.665 197.792 483.087 198.956 483.925 199.949C484.93 200.941 486.099 201.431 487.432 201.421L513.181 201.214ZM622.857 152.331C643.523 152.165 653.908 163.082 654.011 185.081L654.195 224.581L597.447 225.037L597.567 250.537C597.573 251.87 597.995 253.033 598.833 254.027C599.837 255.019 601.006 255.509 602.34 255.499L616.089 255.388C617.423 255.377 618.504 254.869 619.332 253.862C620.327 252.854 620.822 251.683 620.816 250.35L620.753 236.85L654.252 236.581L654.296 246.081C654.399 268.081 644.117 279.163 623.451 279.33L595.202 279.557C574.536 279.723 564.152 268.806 564.049 246.806L563.764 185.807C563.661 163.807 573.942 152.724 594.608 152.558L622.857 152.331ZM597.344 203.037L620.594 202.85L620.488 180.351C620.482 179.017 619.977 177.855 618.972 176.863C618.134 175.87 617.048 175.378 615.715 175.389L601.966 175.499C600.632 175.51 599.468 176.02 598.473 177.028C597.644 178.034 597.233 179.204 597.239 180.538L597.344 203.037Z"/>
</mask>
<path d="M320.6 279.264L287.101 279.533L286.344 117.785L319.843 117.515L320.6 279.264ZM432.826 186.859L433.112 247.858C433.215 269.858 422.933 280.941 402.267 281.107L374.018 281.334C353.352 281.5 342.968 270.584 342.865 248.584L342.579 187.584C342.476 165.585 352.758 154.502 373.424 154.336L401.673 154.109C422.339 153.943 432.724 164.859 432.826 186.859ZM399.646 255.128L399.294 179.878C399.287 178.545 398.782 177.383 397.777 176.391C396.939 175.397 395.854 174.906 394.52 174.917L380.771 175.027C379.437 175.038 378.273 175.547 377.278 176.555C376.449 177.562 376.038 178.732 376.044 180.065L376.396 255.315C376.403 256.648 376.825 257.811 377.663 258.804C378.667 259.796 379.836 260.287 381.17 260.276L394.919 260.166C396.252 260.155 397.333 259.646 398.162 258.64C399.157 257.632 399.652 256.461 399.646 255.128ZM513.181 201.214C533.847 201.048 544.232 211.964 544.334 233.964L544.395 246.964C544.498 268.964 534.217 280.047 513.551 280.213L485.801 280.436C465.135 280.602 454.751 269.685 454.648 247.685L454.612 239.935L485.611 239.686L485.662 250.686C485.669 252.02 486.091 253.183 486.929 254.176C487.933 255.168 489.102 255.659 490.436 255.648L510.935 255.483C512.268 255.472 513.349 254.964 514.178 253.957C515.173 252.949 515.668 251.778 515.661 250.445L515.591 235.445C515.585 234.112 515.08 232.949 514.075 231.957C513.237 230.964 512.151 230.473 510.818 230.483L485.069 230.69C464.403 230.857 454.018 219.94 453.915 197.94L453.863 186.69C453.76 164.69 464.041 153.607 484.707 153.441L510.957 153.23C531.623 153.064 542.007 163.981 542.11 185.981L542.131 190.481L511.132 190.73L511.096 182.98C511.09 181.647 510.584 180.484 509.579 179.492C508.741 178.499 507.656 178.008 506.323 178.018L487.323 178.171C485.99 178.182 484.826 178.691 483.83 179.699C483.002 180.706 482.59 181.876 482.597 183.209L482.659 196.459C482.665 197.792 483.087 198.956 483.925 199.949C484.93 200.941 486.099 201.431 487.432 201.421L513.181 201.214ZM622.857 152.331C643.523 152.165 653.908 163.082 654.011 185.081L654.195 224.581L597.447 225.037L597.567 250.537C597.573 251.87 597.995 253.033 598.833 254.027C599.837 255.019 601.006 255.509 602.34 255.499L616.089 255.388C617.423 255.377 618.504 254.869 619.332 253.862C620.327 252.854 620.822 251.683 620.816 250.35L620.753 236.85L654.252 236.581L654.296 246.081C654.399 268.081 644.117 279.163 623.451 279.33L595.202 279.557C574.536 279.723 564.152 268.806 564.049 246.806L563.764 185.807C563.661 163.807 573.942 152.724 594.608 152.558L622.857 152.331ZM597.344 203.037L620.594 202.85L620.488 180.351C620.482 179.017 619.977 177.855 618.972 176.863C618.134 175.87 617.048 175.378 615.715 175.389L601.966 175.499C600.632 175.51 599.468 176.02 598.473 177.028C597.644 178.034 597.233 179.204 597.239 180.538L597.344 203.037Z" fill="white"/>
<path d="M320.6 279.264L320.604 280.264L321.604 280.256L321.6 279.256L320.6 279.264ZM287.101 279.533L286.101 279.541L286.106 280.541L287.106 280.533L287.101 279.533ZM286.344 117.785L286.34 116.785L285.34 116.793L285.344 117.793L286.344 117.785ZM319.843 117.515L320.843 117.507L320.839 116.507L319.839 116.515L319.843 117.515ZM320.6 279.264L320.595 278.264L287.096 278.533L287.101 279.533L287.106 280.533L320.604 280.264L320.6 279.264ZM287.101 279.533L288.101 279.525L287.344 117.777L286.344 117.785L285.344 117.793L286.101 279.541L287.101 279.533ZM286.344 117.785L286.349 118.785L319.848 118.515L319.843 117.515L319.839 116.515L286.34 116.785L286.344 117.785ZM319.843 117.515L318.843 117.523L319.6 279.272L320.6 279.264L321.6 279.256L320.843 117.507L319.843 117.515ZM397.777 176.391L397.012 177.037L397.041 177.072L397.073 177.103L397.777 176.391ZM377.278 176.555L376.568 175.854L376.536 175.886L376.507 175.921L377.278 176.555ZM377.663 258.804L376.897 259.451L376.927 259.485L376.959 259.517L377.663 258.804ZM398.162 258.64L397.452 257.938L397.42 257.971L397.391 258.006L398.162 258.64ZM432.826 186.859L431.826 186.867L432.112 247.867L433.112 247.858L434.112 247.85L433.826 186.851L432.826 186.859ZM433.112 247.858L432.112 247.867C432.163 258.727 429.648 266.707 424.746 271.992C419.854 277.264 412.425 280.026 402.262 280.107L402.267 281.107L402.272 282.107C412.775 282.023 420.819 279.16 426.21 273.349C431.589 267.551 434.164 258.989 434.112 247.85L433.112 247.858ZM402.267 281.107L402.262 280.107L374.013 280.334L374.018 281.334L374.023 282.334L402.272 282.107L402.267 281.107ZM374.018 281.334L374.013 280.334C363.851 280.416 356.396 277.774 351.456 272.581C346.504 267.376 343.915 259.437 343.865 248.576L342.865 248.584L341.865 248.592C341.917 259.731 344.571 268.25 350.005 273.962C355.449 279.685 363.519 282.419 374.023 282.334L374.018 281.334ZM342.865 248.584L343.865 248.576L343.579 187.576L342.579 187.584L341.579 187.593L341.865 248.592L342.865 248.584ZM342.579 187.584L343.579 187.576C343.528 176.716 346.043 168.736 350.945 163.451C355.837 158.179 363.266 155.417 373.429 155.336L373.424 154.336L373.419 153.336C362.916 153.42 354.872 156.283 349.481 162.094C344.102 167.892 341.527 176.454 341.579 187.593L342.579 187.584ZM373.424 154.336L373.429 155.336L401.678 155.109L401.673 154.109L401.668 153.109L373.419 153.336L373.424 154.336ZM401.673 154.109L401.678 155.109C411.84 155.027 419.295 157.669 424.235 162.862C429.187 168.067 431.776 176.006 431.826 186.867L432.826 186.859L433.826 186.851C433.774 175.712 431.12 167.193 425.687 161.481C420.242 155.758 412.172 153.024 401.668 153.109L401.673 154.109ZM399.646 255.128L400.645 255.12L400.294 179.87L399.294 179.878L398.294 179.887L398.646 255.136L399.646 255.128ZM399.294 179.878L400.294 179.87C400.286 178.255 399.661 176.843 398.481 175.678L397.777 176.391L397.073 177.103C397.902 177.922 398.289 178.836 398.294 179.887L399.294 179.878ZM397.777 176.391L398.542 175.744C397.508 174.518 396.137 173.904 394.516 173.917L394.52 174.917L394.525 175.917C395.57 175.908 396.37 176.276 397.012 177.037L397.777 176.391ZM394.52 174.917L394.516 173.917L380.766 174.027L380.771 175.027L380.775 176.027L394.525 175.917L394.52 174.917ZM380.771 175.027L380.766 174.027C379.15 174.04 377.737 174.67 376.568 175.854L377.278 176.555L377.988 177.257C378.81 176.425 379.725 176.036 380.775 176.027L380.771 175.027ZM377.278 176.555L376.507 175.921C375.525 177.114 375.037 178.512 375.044 180.073L376.044 180.065L377.044 180.057C377.039 178.952 377.373 178.01 378.049 177.189L377.278 176.555ZM376.044 180.065L375.044 180.073L375.396 255.323L376.396 255.315L377.396 255.306L377.044 180.057L376.044 180.065ZM376.396 255.315L375.396 255.323C375.404 256.884 375.905 258.274 376.897 259.451L377.663 258.804L378.428 258.158C377.744 257.348 377.401 256.412 377.396 255.306L376.396 255.315ZM377.663 258.804L376.959 259.517C378.139 260.683 379.558 261.289 381.174 261.276L381.17 260.276L381.165 259.276C380.114 259.285 379.195 258.91 378.366 258.092L377.663 258.804ZM381.17 260.276L381.174 261.276L394.924 261.166L394.919 260.166L394.914 259.166L381.165 259.276L381.17 260.276ZM394.919 260.166L394.924 261.166C396.545 261.153 397.91 260.516 398.933 259.274L398.162 258.64L397.391 258.006C396.756 258.776 395.959 259.157 394.914 259.166L394.919 260.166ZM398.162 258.64L398.872 259.341C400.042 258.157 400.653 256.735 400.645 255.12L399.646 255.128L398.646 255.136C398.65 256.186 398.273 257.107 397.452 257.938L398.162 258.64ZM454.612 239.935L454.607 238.935L453.607 238.944L453.612 239.944L454.612 239.935ZM485.611 239.686L486.611 239.678L486.606 238.678L485.606 238.686L485.611 239.686ZM486.929 254.176L486.163 254.822L486.193 254.857L486.225 254.889L486.929 254.176ZM514.178 253.957L513.467 253.256L513.435 253.288L513.407 253.323L514.178 253.957ZM514.075 231.957L513.31 232.604L513.339 232.638L513.371 232.67L514.075 231.957ZM542.131 190.481L542.136 191.481L543.136 191.473L543.131 190.473L542.131 190.481ZM511.132 190.73L510.132 190.738L510.137 191.738L511.137 191.73L511.132 190.73ZM509.579 179.492L508.814 180.138L508.843 180.173L508.876 180.205L509.579 179.492ZM483.83 179.699L483.12 178.998L483.088 179.03L483.059 179.065L483.83 179.699ZM483.925 199.949L483.16 200.595L483.189 200.63L483.221 200.662L483.925 199.949ZM513.181 201.214L513.186 202.214C523.348 202.132 530.803 204.774 535.743 209.967C540.695 215.172 543.284 223.111 543.334 233.972L544.334 233.964L545.334 233.956C545.282 222.817 542.628 214.298 537.195 208.586C531.75 202.863 523.68 200.129 513.176 200.214L513.181 201.214ZM544.334 233.964L543.334 233.972L543.395 246.972L544.395 246.964L545.395 246.956L545.334 233.956L544.334 233.964ZM544.395 246.964L543.395 246.972C543.446 257.833 540.931 265.813 536.029 271.097C531.138 276.37 523.708 279.131 513.546 279.213L513.551 280.213L513.555 281.213C524.059 281.128 532.103 278.265 537.493 272.455C542.873 266.656 545.447 258.095 545.395 246.956L544.395 246.964ZM513.551 280.213L513.546 279.213L485.797 279.436L485.801 280.436L485.806 281.436L513.555 281.213L513.551 280.213ZM485.801 280.436L485.797 279.436C475.634 279.518 468.179 276.876 463.239 271.682C458.288 266.477 455.699 258.538 455.648 247.677L454.648 247.685L453.648 247.693C453.7 258.832 456.355 267.352 461.788 273.063C467.232 278.787 475.302 281.52 485.806 281.436L485.801 280.436ZM454.648 247.685L455.648 247.677L455.612 239.927L454.612 239.935L453.612 239.944L453.648 247.693L454.648 247.685ZM454.612 239.935L454.617 240.935L485.616 240.686L485.611 239.686L485.606 238.686L454.607 238.935L454.612 239.935ZM485.611 239.686L484.611 239.694L484.662 250.694L485.662 250.686L486.662 250.678L486.611 239.678L485.611 239.686ZM485.662 250.686L484.662 250.694C484.67 252.255 485.171 253.646 486.163 254.822L486.929 254.176L487.694 253.53C487.01 252.72 486.667 251.784 486.662 250.678L485.662 250.686ZM486.929 254.176L486.225 254.889C487.405 256.054 488.824 256.661 490.44 256.648L490.436 255.648L490.431 254.648C489.38 254.656 488.461 254.282 487.632 253.463L486.929 254.176ZM490.436 255.648L490.44 256.648L510.94 256.483L510.935 255.483L510.93 254.483L490.431 254.648L490.436 255.648ZM510.935 255.483L510.94 256.483C512.561 256.47 513.926 255.834 514.949 254.591L514.178 253.957L513.407 253.323C512.772 254.094 511.975 254.475 510.93 254.483L510.935 255.483ZM514.178 253.957L514.888 254.659C516.058 253.474 516.669 252.053 516.661 250.437L515.661 250.445L514.661 250.453C514.666 251.504 514.289 252.424 513.467 253.256L514.178 253.957ZM515.661 250.445L516.661 250.437L516.591 235.437L515.591 235.445L514.591 235.453L514.661 250.453L515.661 250.445ZM515.591 235.445L516.591 235.437C516.584 233.821 515.959 232.41 514.779 231.245L514.075 231.957L513.371 232.67C514.2 233.489 514.586 234.403 514.591 235.453L515.591 235.445ZM514.075 231.957L514.84 231.311C513.806 230.085 512.435 229.47 510.813 229.483L510.818 230.483L510.823 231.483C511.867 231.475 512.668 231.843 513.31 232.604L514.075 231.957ZM510.818 230.483L510.813 229.483L485.064 229.69L485.069 230.69L485.073 231.69L510.823 231.483L510.818 230.483ZM485.069 230.69L485.064 229.69C474.902 229.772 467.447 227.13 462.507 221.937C457.555 216.732 454.966 208.793 454.915 197.932L453.915 197.94L452.915 197.948C452.968 209.087 455.622 217.606 461.055 223.318C466.5 229.041 474.57 231.775 485.073 231.69L485.069 230.69ZM453.915 197.94L454.915 197.932L454.863 186.682L453.863 186.69L452.863 186.698L452.915 197.948L453.915 197.94ZM453.863 186.69L454.863 186.682C454.812 175.821 457.327 167.841 462.229 162.557C467.12 157.284 474.55 154.523 484.712 154.441L484.707 153.441L484.703 152.441C474.199 152.526 466.155 155.389 460.765 161.199C455.386 166.998 452.811 175.559 452.863 186.698L453.863 186.69ZM484.707 153.441L484.712 154.441L510.961 154.23L510.957 153.23L510.952 152.23L484.703 152.441L484.707 153.441ZM510.957 153.23L510.961 154.23C521.124 154.149 528.579 156.79 533.519 161.984C538.47 167.189 541.059 175.128 541.11 185.989L542.11 185.981L543.11 185.973C543.058 174.834 540.403 166.314 534.97 160.603C529.526 154.88 521.456 152.146 510.952 152.23L510.957 153.23ZM542.11 185.981L541.11 185.989L541.131 190.489L542.131 190.481L543.131 190.473L543.11 185.973L542.11 185.981ZM542.131 190.481L542.126 189.481L511.127 189.73L511.132 190.73L511.137 191.73L542.136 191.481L542.131 190.481ZM511.132 190.73L512.132 190.722L512.096 182.972L511.096 182.98L510.096 182.988L510.132 190.738L511.132 190.73ZM511.096 182.98L512.096 182.972C512.088 181.356 511.464 179.945 510.283 178.779L509.579 179.492L508.876 180.205C509.705 181.023 510.091 181.937 510.096 182.988L511.096 182.98ZM509.579 179.492L510.345 178.846C509.31 177.62 507.94 177.005 506.318 177.018L506.323 178.018L506.327 179.018C507.372 179.01 508.173 179.378 508.814 180.138L509.579 179.492ZM506.323 178.018L506.318 177.018L487.318 177.171L487.323 178.171L487.328 179.171L506.327 179.018L506.323 178.018ZM487.323 178.171L487.318 177.171C485.703 177.184 484.289 177.813 483.12 178.998L483.83 179.699L484.541 180.4C485.362 179.569 486.277 179.179 487.328 179.171L487.323 178.171ZM483.83 179.699L483.059 179.065C482.078 180.257 481.589 181.656 481.597 183.217L482.597 183.209L483.597 183.201C483.591 182.095 483.926 181.154 484.601 180.333L483.83 179.699ZM482.597 183.209L481.597 183.217L481.659 196.467L482.659 196.459L483.659 196.451L483.597 183.201L482.597 183.209ZM482.659 196.459L481.659 196.467C481.666 198.028 482.167 199.419 483.16 200.595L483.925 199.949L484.69 199.302C484.007 198.492 483.664 197.556 483.659 196.451L482.659 196.459ZM483.925 199.949L483.221 200.662C484.402 201.827 485.821 202.434 487.437 202.421L487.432 201.421L487.427 200.421C486.376 200.429 485.458 200.054 484.629 199.236L483.925 199.949ZM487.432 201.421L487.437 202.421L513.186 202.214L513.181 201.214L513.176 200.214L487.427 200.421L487.432 201.421ZM654.195 224.581L654.2 225.581L655.2 225.573L655.195 224.573L654.195 224.581ZM597.447 225.037L597.443 224.037L596.443 224.045L596.447 225.045L597.447 225.037ZM598.833 254.027L598.068 254.673L598.097 254.708L598.129 254.74L598.833 254.027ZM619.332 253.862L618.622 253.161L618.59 253.193L618.561 253.228L619.332 253.862ZM620.753 236.85L620.748 235.85L619.748 235.858L619.753 236.858L620.753 236.85ZM654.252 236.581L655.252 236.573L655.247 235.573L654.247 235.581L654.252 236.581ZM597.344 203.037L596.344 203.045L596.349 204.045L597.349 204.037L597.344 203.037ZM620.594 202.85L620.598 203.85L621.598 203.842L621.594 202.842L620.594 202.85ZM618.972 176.863L618.207 177.509L618.236 177.544L618.268 177.576L618.972 176.863ZM598.473 177.028L597.762 176.326L597.73 176.358L597.702 176.394L598.473 177.028ZM622.857 152.331L622.862 153.331C633.024 153.249 640.479 155.891 645.42 161.085C650.371 166.29 652.96 174.229 653.011 185.089L654.011 185.081L655.011 185.073C654.959 173.934 652.304 165.415 646.871 159.703C641.427 153.98 633.356 151.247 622.853 151.331L622.857 152.331ZM654.011 185.081L653.011 185.089L653.195 224.589L654.195 224.581L655.195 224.573L655.011 185.073L654.011 185.081ZM654.195 224.581L654.191 223.581L597.443 224.037L597.447 225.037L597.452 226.037L654.2 225.581L654.195 224.581ZM597.447 225.037L596.447 225.045L596.567 250.545L597.567 250.537L598.566 250.529L598.447 225.029L597.447 225.037ZM597.567 250.537L596.567 250.545C596.574 252.106 597.075 253.497 598.068 254.673L598.833 254.027L599.598 253.38C598.915 252.57 598.572 251.634 598.566 250.529L597.567 250.537ZM598.833 254.027L598.129 254.74C599.309 255.905 600.729 256.512 602.344 256.499L602.34 255.499L602.335 254.499C601.284 254.507 600.366 254.132 599.537 253.314L598.833 254.027ZM602.34 255.499L602.344 256.499L616.094 256.388L616.089 255.388L616.085 254.388L602.335 254.499L602.34 255.499ZM616.089 255.388L616.094 256.388C617.716 256.375 619.081 255.739 620.103 254.496L619.332 253.862L618.561 253.228C617.927 253.999 617.129 254.38 616.085 254.388L616.089 255.388ZM619.332 253.862L620.043 254.563C621.212 253.379 621.823 251.958 621.816 250.342L620.816 250.35L619.816 250.358C619.821 251.409 619.443 252.329 618.622 253.161L619.332 253.862ZM620.816 250.35L621.816 250.342L621.753 236.842L620.753 236.85L619.753 236.858L619.816 250.358L620.816 250.35ZM620.753 236.85L620.757 237.85L654.256 237.581L654.252 236.581L654.247 235.581L620.748 235.85L620.753 236.85ZM654.252 236.581L653.252 236.589L653.296 246.089L654.296 246.081L655.296 246.073L655.252 236.573L654.252 236.581ZM654.296 246.081L653.296 246.089C653.347 256.95 650.832 264.93 645.93 270.214C641.039 275.487 633.609 278.248 623.447 278.33L623.451 279.33L623.456 280.33C633.96 280.245 642.004 277.382 647.394 271.572C652.773 265.773 655.348 257.212 655.296 246.073L654.296 246.081ZM623.451 279.33L623.447 278.33L595.198 278.557L595.202 279.557L595.207 280.557L623.456 280.33L623.451 279.33ZM595.202 279.557L595.198 278.557C585.035 278.638 577.58 275.997 572.64 270.803C567.689 265.598 565.1 257.659 565.049 246.798L564.049 246.806L563.049 246.814C563.101 257.953 565.756 266.472 571.189 272.184C576.633 277.907 584.703 280.641 595.207 280.557L595.202 279.557ZM564.049 246.806L565.049 246.798L564.764 185.799L563.764 185.807L562.764 185.815L563.049 246.814L564.049 246.806ZM563.764 185.807L564.764 185.799C564.713 174.938 567.227 166.958 572.13 161.674C577.021 156.401 584.451 153.64 594.613 153.558L594.608 152.558L594.604 151.558C584.1 151.642 576.056 154.506 570.666 160.316C565.286 166.114 562.712 174.676 562.764 185.815L563.764 185.807ZM594.608 152.558L594.613 153.558L622.862 153.331L622.857 152.331L622.853 151.331L594.604 151.558L594.608 152.558ZM597.344 203.037L597.349 204.037L620.598 203.85L620.594 202.85L620.589 201.85L597.34 202.037L597.344 203.037ZM620.594 202.85L621.594 202.842L621.488 180.343L620.488 180.351L619.488 180.359L619.594 202.859L620.594 202.85ZM620.488 180.351L621.488 180.343C621.481 178.727 620.856 177.315 619.676 176.15L618.972 176.863L618.268 177.576C619.097 178.394 619.483 179.308 619.488 180.359L620.488 180.351ZM618.972 176.863L619.737 176.216C618.703 174.99 617.332 174.376 615.71 174.389L615.715 175.389L615.72 176.389C616.765 176.381 617.565 176.749 618.207 177.509L618.972 176.863ZM615.715 175.389L615.71 174.389L601.961 174.499L601.966 175.499L601.97 176.499L615.72 176.389L615.715 175.389ZM601.966 175.499L601.961 174.499C600.345 174.512 598.932 175.142 597.762 176.326L598.473 177.028L599.183 177.729C600.004 176.897 600.92 176.508 601.97 176.499L601.966 175.499ZM598.473 177.028L597.702 176.394C596.72 177.586 596.232 178.985 596.239 180.546L597.239 180.538L598.239 180.53C598.234 179.424 598.568 178.483 599.244 177.662L598.473 177.028ZM597.239 180.538L596.239 180.546L596.344 203.045L597.344 203.037L598.344 203.029L598.239 180.53L597.239 180.538Z" fill="black" mask="url(#path-13-outside-5_1_31)"/>
<mask id="path-15-outside-6_1_31" maskUnits="userSpaceOnUse" x="150" y="116" width="122.001" height="216.998" fill="black">
<rect fill="white" x="150" y="116" width="122.001" height="216.998"/>
<path d="M228.121 294.079L228.121 262.079L270.681 262.079L270.681 288.959C270.681 317.119 257.455 331.198 231.001 331.198L190.681 331.198C164.227 331.198 151 317.119 151 288.959L151 160C151 131.84 164.227 117.76 190.681 117.76L231.001 117.76C257.455 117.76 270.681 131.84 270.681 160L270.681 179.52L228.121 179.52L228.121 154.56C228.121 152.853 227.481 151.36 226.201 150.08C225.134 148.8 223.748 148.16 222.041 148.16L201.881 148.16C200.174 148.16 198.681 148.8 197.401 150.08C196.334 151.36 195.801 152.853 195.801 154.56L195.801 294.079C195.801 295.785 196.334 297.279 197.401 298.559C198.681 299.839 200.174 300.479 201.881 300.479L222.041 300.479C223.748 300.479 225.134 299.839 226.201 298.559C227.481 297.279 228.121 295.785 228.121 294.079Z"/>
</mask>
<path d="M228.121 294.079L228.121 262.079L270.681 262.079L270.681 288.959C270.681 317.119 257.455 331.198 231.001 331.198L190.681 331.198C164.227 331.198 151 317.119 151 288.959L151 160C151 131.84 164.227 117.76 190.681 117.76L231.001 117.76C257.455 117.76 270.681 131.84 270.681 160L270.681 179.52L228.121 179.52L228.121 154.56C228.121 152.853 227.481 151.36 226.201 150.08C225.134 148.8 223.748 148.16 222.041 148.16L201.881 148.16C200.174 148.16 198.681 148.8 197.401 150.08C196.334 151.36 195.801 152.853 195.801 154.56L195.801 294.079C195.801 295.785 196.334 297.279 197.401 298.559C198.681 299.839 200.174 300.479 201.881 300.479L222.041 300.479C223.748 300.479 225.134 299.839 226.201 298.559C227.481 297.279 228.121 295.785 228.121 294.079Z" fill="white"/>
<path d="M228.121 262.079L228.121 261.079L227.121 261.079L227.121 262.079L228.121 262.079ZM270.681 262.079L271.681 262.079L271.681 261.079L270.681 261.079L270.681 262.079ZM270.681 179.52L270.681 180.52L271.681 180.52L271.681 179.52L270.681 179.52ZM228.121 179.52L227.121 179.52L227.121 180.52L228.121 180.52L228.121 179.52ZM226.201 150.08L225.433 150.72L225.462 150.755L225.494 150.787L226.201 150.08ZM197.401 150.08L196.693 149.373L196.661 149.405L196.632 149.44L197.401 150.08ZM197.401 298.559L196.632 299.199L196.661 299.234L196.693 299.266L197.401 298.559ZM226.201 298.559L225.494 297.852L225.462 297.884L225.433 297.918L226.201 298.559ZM228.121 294.079L229.121 294.079L229.121 262.079L228.121 262.079L227.121 262.079L227.121 294.079L228.121 294.079ZM228.121 262.079L228.121 263.079L270.681 263.079L270.681 262.079L270.681 261.079L228.121 261.079L228.121 262.079ZM270.681 262.079L269.681 262.079L269.681 288.959L270.681 288.959L271.681 288.959L271.681 262.079L270.681 262.079ZM270.681 288.959L269.681 288.959C269.681 302.9 266.406 313.169 260.032 319.954C253.67 326.727 244.057 330.198 231.001 330.198L231.001 331.198L231.001 332.198C244.398 332.198 254.626 328.63 261.49 321.323C268.343 314.028 271.681 303.178 271.681 288.959L270.681 288.959ZM231.001 331.198L231.001 330.198L190.681 330.198L190.681 331.198L190.681 332.198L231.001 332.198L231.001 331.198ZM190.681 331.198L190.681 330.198C177.624 330.198 168.012 326.727 161.649 319.954C155.275 313.169 152 302.9 152 288.959L151 288.959L150 288.959C150 303.178 153.338 314.028 160.191 321.323C167.056 328.63 177.283 332.198 190.681 332.198L190.681 331.198ZM151 288.959L152 288.959L152 160L151 160L150 160L150 288.959L151 288.959ZM151 160L152 160C152 146.059 155.275 135.79 161.649 129.005C168.012 122.232 177.624 118.76 190.681 118.76L190.681 117.76L190.681 116.76C177.283 116.76 167.056 120.329 160.191 127.635C153.338 134.93 150 145.781 150 160L151 160ZM190.681 117.76L190.681 118.76L231.001 118.76L231.001 117.76L231.001 116.76L190.681 116.76L190.681 117.76ZM231.001 117.76L231.001 118.76C244.057 118.76 253.67 122.232 260.032 129.005C266.406 135.79 269.681 146.059 269.681 160L270.681 160L271.681 160C271.681 145.781 268.343 134.93 261.49 127.635C254.626 120.329 244.398 116.76 231.001 116.76L231.001 117.76ZM270.681 160L269.681 160L269.681 179.52L270.681 179.52L271.681 179.52L271.681 160L270.681 160ZM270.681 179.52L270.681 178.52L228.121 178.52L228.121 179.52L228.121 180.52L270.681 180.52L270.681 179.52ZM228.121 179.52L229.121 179.52L229.121 154.56L228.121 154.56L227.121 154.56L227.121 179.52L228.121 179.52ZM228.121 154.56L229.121 154.56C229.121 152.571 228.363 150.828 226.908 149.373L226.201 150.08L225.494 150.787C226.599 151.892 227.121 153.136 227.121 154.56L228.121 154.56ZM226.201 150.08L226.969 149.44C225.707 147.925 224.036 147.16 222.041 147.16L222.041 148.16L222.041 149.16C223.459 149.16 224.561 149.674 225.433 150.72L226.201 150.08ZM222.041 148.16L222.041 147.16L201.881 147.16L201.881 148.16L201.881 149.16L222.041 149.16L222.041 148.16ZM201.881 148.16L201.881 147.16C199.891 147.16 198.148 147.918 196.693 149.373L197.401 150.08L198.108 150.787C199.213 149.682 200.457 149.16 201.881 149.16L201.881 148.16ZM197.401 150.08L196.632 149.44C195.412 150.904 194.801 152.625 194.801 154.56L195.801 154.56L196.801 154.56C196.801 153.081 197.256 151.816 198.169 150.72L197.401 150.08ZM195.801 154.56L194.801 154.56L194.801 294.079L195.801 294.079L196.801 294.079L196.801 154.56L195.801 154.56ZM195.801 294.079L194.801 294.079C194.801 296.013 195.412 297.734 196.632 299.199L197.401 298.559L198.169 297.918C197.256 296.823 196.801 295.558 196.801 294.079L195.801 294.079ZM197.401 298.559L196.693 299.266C198.148 300.721 199.891 301.479 201.881 301.479L201.881 300.479L201.881 299.479C200.457 299.479 199.213 298.957 198.108 297.852L197.401 298.559ZM201.881 300.479L201.881 301.479L222.041 301.479L222.041 300.479L222.041 299.479L201.881 299.479L201.881 300.479ZM222.041 300.479L222.041 301.479C224.036 301.479 225.707 300.713 226.969 299.199L226.201 298.559L225.433 297.918C224.561 298.964 223.459 299.479 222.041 299.479L222.041 300.479ZM226.201 298.559L226.908 299.266C228.363 297.811 229.121 296.068 229.121 294.079L228.121 294.079L227.121 294.079C227.121 295.503 226.599 296.746 225.494 297.852L226.201 298.559Z" fill="black" mask="url(#path-15-outside-6_1_31)"/>
</svg>
